M48
; DRILL file {KiCad 7.0.5} date Mon Aug  7 14:42:54 2023
; FORMAT={-:-/ absolute / inch / decimal}
; #@! TF.CreationDate,2023-08-07T14:42:54-07:00
; #@! TF.GenerationSoftware,Kicad,Pcbnew,7.0.5
; #@! TF.FileFunction,Plated,1,2,PTH
FMAT,2
INCH
; #@! TA.AperFunction,Plated,PTH,ViaDrill
T1C0.0236
; #@! TA.AperFunction,Plated,PTH,ComponentDrill
T2C0.0315
; #@! TA.AperFunction,Plated,PTH,ComponentDrill
T3C0.0394
; #@! TA.AperFunction,Plated,PTH,ComponentDrill
T4C0.0591
; #@! TA.AperFunction,Plated,PTH,ComponentDrill
T5C0.0669
; #@! TA.AperFunction,Plated,PTH,ComponentDrill
T6C0.1260
%
G90
G05
T1
X3.82Y-3.41
X3.89Y-3.36
X3.978Y-3.31
X4.04Y-3.92
X4.044Y-3.482
X4.046Y-3.306
X4.048Y-3.25
X4.05Y-2.57
X4.05Y-3.06
X4.056Y-2.682
X4.062Y-3.622
X4.16Y-2.44
X4.16Y-4.06
X4.172Y-3.438
X4.178Y-3.236
X4.252Y-3.0
X4.2717Y-3.7992
X4.3228Y-3.7023
X4.3898Y-3.378
X4.39Y-3.505
X4.4016Y-2.6142
X4.41Y-2.44
X4.41Y-4.06
X4.4252Y-3.1299
X4.5039Y-2.9724
X4.5354Y-3.3307
X4.5433Y-3.7835
X4.5669Y-3.5748
X4.62Y-2.79
X4.62Y-2.975
X4.64Y-2.43
X4.64Y-4.06
X4.685Y-3.5748
X4.7441Y-3.3071
X4.75Y-2.73
X4.75Y-2.7953
X4.7598Y-3.1693
X4.8031Y-3.7795
X4.805Y-3.0394
X4.825Y-3.685
X4.8504Y-2.7874
X4.87Y-2.43
X4.88Y-4.06
X4.9724Y-3.0394
X4.9843Y-2.8976
X5.0354Y-3.8504
X5.0532Y-3.4764
X5.06Y-3.335
X5.066Y-3.736
X5.11Y-2.43
X5.11Y-4.06
X5.135Y-3.47
X5.1535Y-3.3858
X5.156Y-3.632
X5.17Y-2.905
X5.2008Y-3.1299
X5.215Y-3.36
X5.2402Y-2.6535
X5.26Y-3.5
X5.2677Y-3.6142
X5.34Y-2.43
X5.345Y-2.975
X5.36Y-4.06
X5.41Y-3.898
X5.415Y-3.115
X5.4331Y-3.3504
X5.437Y-3.4528
X5.45Y-3.235
X5.4567Y-3.1614
X5.468Y-3.676
X5.4764Y-2.878
X5.5591Y-3.5276
X5.56Y-2.985
X5.58Y-2.43
X5.59Y-4.06
X5.6063Y-2.7165
X5.6181Y-3.3228
X5.626Y-3.1772
X5.6535Y-3.2323
X5.6619Y-2.9601
X5.6811Y-2.7677
X5.715Y-3.76
X5.7717Y-3.563
X5.811Y-3.878
X5.815Y-2.8967
X5.82Y-2.43
X5.82Y-2.82
X5.82Y-4.06
X5.8425Y-3.3701
X5.9055Y-3.0591
X5.9291Y-2.5709
X5.9291Y-2.7717
X5.9449Y-3.1811
X5.995Y-3.425
X6.0276Y-3.3701
X6.05Y-2.43
X6.0591Y-3.0276
X6.06Y-4.06
X6.0984Y-3.1378
X6.1811Y-3.2362
X6.1811Y-3.3228
X6.185Y-3.4843
X6.185Y-3.7244
X6.188Y-2.555
X6.19Y-2.78
X6.19Y-3.02
X6.19Y-4.01
X6.27Y-2.535
X6.285Y-2.755
X6.3504Y-3.7835
X6.3858Y-4.0
X6.42Y-3.405
X6.43Y-3.18
X6.4528Y-3.5945
X6.635Y-3.175
X6.6378Y-3.8701
X6.655Y-2.715
X6.66Y-2.51
X6.69Y-3.06
X6.695Y-2.885
T2
X6.5079Y-3.7677
X6.6079Y-3.7677
X6.7079Y-3.7677
T3
X6.5236Y-3.2661
X6.5236Y-3.3661
X6.5236Y-3.4661
X6.7008Y-3.2687
X6.7008Y-3.3687
X7.3Y-3.0
X7.3Y-3.1
X7.3Y-3.2
T4
X3.89Y-3.65
X3.897Y-2.868
T5
X3.79Y-3.55
X3.79Y-3.75
X3.797Y-2.768
X3.797Y-2.968
X3.99Y-3.55
X3.99Y-3.75
X3.997Y-2.768
X3.997Y-2.968
T6
X3.9Y-2.5
X3.9Y-4.0
X7.3Y-2.5
X7.3Y-4.0
T0
M30
