%TF.GenerationSoftware,KiCad,Pcbnew,7.0.5*%
%TF.CreationDate,2023-08-07T14:42:52-07:00*%
%TF.ProjectId,TransimpedianceAmplifierV2,5472616e-7369-46d7-9065-6469616e6365,rev?*%
%TF.SameCoordinates,Original*%
%TF.FileFunction,Soldermask,Top*%
%TF.FilePolarity,Negative*%
%FSLAX46Y46*%
G04 Gerber Fmt 4.6, Leading zero omitted, Abs format (unit mm)*
G04 Created by KiCad (PCBNEW 7.0.5) date 2023-08-07 14:42:52*
%MOMM*%
%LPD*%
G01*
G04 APERTURE LIST*
G04 Aperture macros list*
%AMRoundRect*
0 Rectangle with rounded corners*
0 $1 Rounding radius*
0 $2 $3 $4 $5 $6 $7 $8 $9 X,Y pos of 4 corners*
0 Add a 4 corners polygon primitive as box body*
4,1,4,$2,$3,$4,$5,$6,$7,$8,$9,$2,$3,0*
0 Add four circle primitives for the rounded corners*
1,1,$1+$1,$2,$3*
1,1,$1+$1,$4,$5*
1,1,$1+$1,$6,$7*
1,1,$1+$1,$8,$9*
0 Add four rect primitives between the rounded corners*
20,1,$1+$1,$2,$3,$4,$5,0*
20,1,$1+$1,$4,$5,$6,$7,0*
20,1,$1+$1,$6,$7,$8,$9,0*
20,1,$1+$1,$8,$9,$2,$3,0*%
G04 Aperture macros list end*
%ADD10RoundRect,0.250000X-0.337500X-0.475000X0.337500X-0.475000X0.337500X0.475000X-0.337500X0.475000X0*%
%ADD11RoundRect,0.250000X-0.475000X0.337500X-0.475000X-0.337500X0.475000X-0.337500X0.475000X0.337500X0*%
%ADD12RoundRect,0.250000X-0.450000X0.350000X-0.450000X-0.350000X0.450000X-0.350000X0.450000X0.350000X0*%
%ADD13R,1.100000X0.400000*%
%ADD14C,2.050000*%
%ADD15C,2.250000*%
%ADD16RoundRect,0.250000X-0.350000X-0.450000X0.350000X-0.450000X0.350000X0.450000X-0.350000X0.450000X0*%
%ADD17RoundRect,0.062500X-0.362500X-0.062500X0.362500X-0.062500X0.362500X0.062500X-0.362500X0.062500X0*%
%ADD18R,1.650000X2.380000*%
%ADD19C,5.600000*%
%ADD20RoundRect,0.250000X0.350000X0.450000X-0.350000X0.450000X-0.350000X-0.450000X0.350000X-0.450000X0*%
%ADD21R,2.000000X1.700000*%
%ADD22RoundRect,0.250000X-0.450000X0.262500X-0.450000X-0.262500X0.450000X-0.262500X0.450000X0.262500X0*%
%ADD23RoundRect,0.250000X0.337500X0.475000X-0.337500X0.475000X-0.337500X-0.475000X0.337500X-0.475000X0*%
%ADD24RoundRect,0.250000X-0.262500X-0.450000X0.262500X-0.450000X0.262500X0.450000X-0.262500X0.450000X0*%
%ADD25RoundRect,0.250000X0.475000X-0.337500X0.475000X0.337500X-0.475000X0.337500X-0.475000X-0.337500X0*%
%ADD26RoundRect,0.250000X0.262500X0.450000X-0.262500X0.450000X-0.262500X-0.450000X0.262500X-0.450000X0*%
%ADD27R,1.700000X1.700000*%
%ADD28O,1.700000X1.700000*%
%ADD29RoundRect,0.250000X0.450000X-0.262500X0.450000X0.262500X-0.450000X0.262500X-0.450000X-0.262500X0*%
%ADD30R,1.000000X3.350000*%
%ADD31R,1.000000X3.800000*%
%ADD32R,3.700000X1.000000*%
%ADD33R,3.800000X1.000000*%
%ADD34RoundRect,0.250000X0.450000X-0.350000X0.450000X0.350000X-0.450000X0.350000X-0.450000X-0.350000X0*%
%ADD35RoundRect,0.250000X1.000000X-1.950000X1.000000X1.950000X-1.000000X1.950000X-1.000000X-1.950000X0*%
%ADD36RoundRect,0.150000X-0.512500X-0.150000X0.512500X-0.150000X0.512500X0.150000X-0.512500X0.150000X0*%
%ADD37C,1.440000*%
%ADD38C,1.000000*%
G04 APERTURE END LIST*
D10*
%TO.C,C38*%
X114062500Y-77100000D03*
X116137500Y-77100000D03*
%TD*%
D11*
%TO.C,C18*%
X119400000Y-79762500D03*
X119400000Y-81837500D03*
%TD*%
D12*
%TO.C,R23*%
X161100000Y-87000000D03*
X161100000Y-89000000D03*
%TD*%
D10*
%TO.C,C42*%
X139975000Y-81825000D03*
X142050000Y-81825000D03*
%TD*%
D13*
%TO.C,U3*%
X115400000Y-72400000D03*
X115400000Y-73050000D03*
X115400000Y-73700000D03*
X115400000Y-74350000D03*
X119700000Y-74350000D03*
X119700000Y-73700000D03*
X119700000Y-73050000D03*
X119700000Y-72400000D03*
%TD*%
D14*
%TO.C,J3*%
X98806000Y-92710000D03*
D15*
X96266000Y-90170000D03*
X96266000Y-95250000D03*
X101346000Y-90170000D03*
X101346000Y-95250000D03*
%TD*%
D16*
%TO.C,R32*%
X145000000Y-81300000D03*
X147000000Y-81300000D03*
%TD*%
D17*
%TO.C,U2*%
X132506000Y-93274000D03*
X132506000Y-93774000D03*
X132506000Y-94274000D03*
X132506000Y-94774000D03*
X132506000Y-95274000D03*
X135406000Y-95274000D03*
X135406000Y-94774000D03*
X135406000Y-94274000D03*
X135406000Y-93774000D03*
X135406000Y-93274000D03*
D18*
X133956000Y-94274000D03*
%TD*%
D19*
%TO.C,J2*%
X99060000Y-101600000D03*
%TD*%
D14*
%TO.C,J7*%
X98983800Y-72847200D03*
D15*
X96443800Y-70307200D03*
X96443800Y-75387200D03*
X101523800Y-70307200D03*
X101523800Y-75387200D03*
%TD*%
D12*
%TO.C,R12*%
X139700000Y-86200000D03*
X139700000Y-88200000D03*
%TD*%
%TO.C,R31*%
X146500000Y-86400000D03*
X146500000Y-88400000D03*
%TD*%
%TO.C,R8*%
X126700000Y-89900000D03*
X126700000Y-91900000D03*
%TD*%
D20*
%TO.C,R29*%
X130000000Y-72200000D03*
X128000000Y-72200000D03*
%TD*%
D16*
%TO.C,R1*%
X100743000Y-86080600D03*
X102743000Y-86080600D03*
%TD*%
D11*
%TO.C,C44*%
X151800000Y-97125000D03*
X151800000Y-99200000D03*
%TD*%
D10*
%TO.C,C41*%
X140575000Y-74025000D03*
X142650000Y-74025000D03*
%TD*%
D21*
%TO.C,L1*%
X167439600Y-66116200D03*
X161439600Y-66116200D03*
%TD*%
D22*
%TO.C,FB9*%
X152600000Y-81987500D03*
X152600000Y-83812500D03*
%TD*%
D11*
%TO.C,C21*%
X132000000Y-87562500D03*
X132000000Y-89637500D03*
%TD*%
D23*
%TO.C,C33*%
X125137500Y-66600000D03*
X123062500Y-66600000D03*
%TD*%
D20*
%TO.C,R17*%
X134400000Y-72400000D03*
X132400000Y-72400000D03*
%TD*%
D24*
%TO.C,FB2*%
X157087500Y-73600000D03*
X158912500Y-73600000D03*
%TD*%
D16*
%TO.C,R15*%
X127900000Y-68900000D03*
X129900000Y-68900000D03*
%TD*%
D19*
%TO.C,J6*%
X185420000Y-101600000D03*
%TD*%
D12*
%TO.C,R24*%
X107700000Y-67000000D03*
X107700000Y-69000000D03*
%TD*%
D25*
%TO.C,C3*%
X174700000Y-76237500D03*
X174700000Y-74162500D03*
%TD*%
D26*
%TO.C,FB6*%
X131012500Y-97700000D03*
X129187500Y-97700000D03*
%TD*%
D11*
%TO.C,C6*%
X183896000Y-68914100D03*
X183896000Y-70989100D03*
%TD*%
D10*
%TO.C,C26*%
X121962500Y-87900000D03*
X124037500Y-87900000D03*
%TD*%
D16*
%TO.C,R16*%
X128000000Y-75400000D03*
X130000000Y-75400000D03*
%TD*%
D11*
%TO.C,C37*%
X107700000Y-71562500D03*
X107700000Y-73637500D03*
%TD*%
D27*
%TO.C,J8*%
X185420000Y-76200000D03*
D28*
X185420000Y-78740000D03*
X185420000Y-81280000D03*
%TD*%
D23*
%TO.C,C20*%
X110359100Y-81889600D03*
X108284100Y-81889600D03*
%TD*%
D11*
%TO.C,C14*%
X146297600Y-71501000D03*
X146297600Y-73576000D03*
%TD*%
D20*
%TO.C,R9*%
X136400000Y-84100000D03*
X134400000Y-84100000D03*
%TD*%
D16*
%TO.C,R14*%
X123200000Y-72100000D03*
X125200000Y-72100000D03*
%TD*%
%TO.C,R27*%
X118300000Y-77200000D03*
X120300000Y-77200000D03*
%TD*%
D10*
%TO.C,C22*%
X134562500Y-90600000D03*
X136637500Y-90600000D03*
%TD*%
D19*
%TO.C,J1*%
X99060000Y-63500000D03*
%TD*%
D23*
%TO.C,C24*%
X126537500Y-97800000D03*
X124462500Y-97800000D03*
%TD*%
D16*
%TO.C,R26*%
X127000000Y-81800000D03*
X129000000Y-81800000D03*
%TD*%
D23*
%TO.C,C49*%
X148937500Y-78700000D03*
X146862500Y-78700000D03*
%TD*%
D29*
%TO.C,FB8*%
X149000000Y-99112500D03*
X149000000Y-97287500D03*
%TD*%
D23*
%TO.C,C17*%
X113275000Y-90600000D03*
X111200000Y-90600000D03*
%TD*%
D16*
%TO.C,R19*%
X169000000Y-100700000D03*
X171000000Y-100700000D03*
%TD*%
D10*
%TO.C,C31*%
X117178000Y-69469000D03*
X119253000Y-69469000D03*
%TD*%
D25*
%TO.C,C7*%
X171800000Y-76237500D03*
X171800000Y-74162500D03*
%TD*%
%TO.C,C15*%
X108200000Y-94037500D03*
X108200000Y-91962500D03*
%TD*%
D30*
%TO.C,J4*%
X104490000Y-64900000D03*
D31*
X104490000Y-70650000D03*
X104490000Y-76650000D03*
X104490000Y-82650000D03*
X104490000Y-88650000D03*
X104490000Y-94650000D03*
D30*
X104490000Y-100425000D03*
D32*
X105840000Y-63700000D03*
X105840000Y-101600000D03*
D33*
X111890000Y-63750000D03*
X111890000Y-101600000D03*
X117890000Y-63750000D03*
X117890000Y-101600000D03*
X123890000Y-63750000D03*
X123890000Y-101600000D03*
X129890000Y-63750000D03*
X129890000Y-101600000D03*
X135890000Y-63750000D03*
X135890000Y-101600000D03*
X141890000Y-63750000D03*
X141890000Y-101600000D03*
X147890000Y-63750000D03*
X147890000Y-101600000D03*
D32*
X153890000Y-63750000D03*
X153890000Y-101600000D03*
D30*
X155240000Y-64900000D03*
D31*
X155240000Y-70650000D03*
X155240000Y-76650000D03*
X155240000Y-82650000D03*
X155240000Y-88650000D03*
X155240000Y-94650000D03*
D30*
X155240000Y-100425000D03*
%TD*%
D16*
%TO.C,R20*%
X116200000Y-66600000D03*
X118200000Y-66600000D03*
%TD*%
D13*
%TO.C,U4*%
X139700000Y-76650000D03*
X139700000Y-77300000D03*
X139700000Y-77950000D03*
X139700000Y-78600000D03*
X144000000Y-78600000D03*
X144000000Y-77950000D03*
X144000000Y-77300000D03*
X144000000Y-76650000D03*
%TD*%
D12*
%TO.C,R21*%
X113200000Y-69400000D03*
X113200000Y-71400000D03*
%TD*%
D26*
%TO.C,FB7*%
X159312500Y-79600000D03*
X157487500Y-79600000D03*
%TD*%
D23*
%TO.C,C39*%
X125375000Y-79000000D03*
X123300000Y-79000000D03*
%TD*%
D25*
%TO.C,C36*%
X160500000Y-100537500D03*
X160500000Y-98462500D03*
%TD*%
D16*
%TO.C,R34*%
X146400000Y-76000000D03*
X148400000Y-76000000D03*
%TD*%
D20*
%TO.C,R36*%
X152500000Y-75900000D03*
X150500000Y-75900000D03*
%TD*%
D26*
%TO.C,FB4*%
X113100000Y-93500000D03*
X111275000Y-93500000D03*
%TD*%
D25*
%TO.C,C29*%
X142800000Y-88237500D03*
X142800000Y-86162500D03*
%TD*%
D11*
%TO.C,C8*%
X148996400Y-66624200D03*
X148996400Y-68699200D03*
%TD*%
D25*
%TO.C,C1*%
X177300000Y-76337500D03*
X177300000Y-74262500D03*
%TD*%
D10*
%TO.C,C23*%
X133762500Y-98000000D03*
X135837500Y-98000000D03*
%TD*%
D27*
%TO.C,JP1*%
X165700000Y-88040000D03*
D28*
X165700000Y-85500000D03*
X165700000Y-82960000D03*
%TD*%
D20*
%TO.C,R37*%
X142400000Y-71000000D03*
X140400000Y-71000000D03*
%TD*%
D24*
%TO.C,FB5*%
X134687500Y-87800000D03*
X136512500Y-87800000D03*
%TD*%
D23*
%TO.C,C40*%
X130075000Y-78800000D03*
X128000000Y-78800000D03*
%TD*%
D12*
%TO.C,R25*%
X161900000Y-82500000D03*
X161900000Y-84500000D03*
%TD*%
D21*
%TO.C,L2*%
X167800000Y-75500000D03*
X161800000Y-75500000D03*
%TD*%
D24*
%TO.C,FB10*%
X151287500Y-78800000D03*
X153112500Y-78800000D03*
%TD*%
D16*
%TO.C,R10*%
X139395200Y-97790000D03*
X141395200Y-97790000D03*
%TD*%
D11*
%TO.C,C28*%
X129300000Y-89862500D03*
X129300000Y-91937500D03*
%TD*%
D17*
%TO.C,U1*%
X113919000Y-86265000D03*
X113919000Y-86765000D03*
X113919000Y-87265000D03*
X113919000Y-87765000D03*
X113919000Y-88265000D03*
X116819000Y-88265000D03*
X116819000Y-87765000D03*
X116819000Y-87265000D03*
X116819000Y-86765000D03*
X116819000Y-86265000D03*
D18*
X115369000Y-87265000D03*
%TD*%
D34*
%TO.C,R4*%
X126800000Y-87600000D03*
X126800000Y-85600000D03*
%TD*%
D23*
%TO.C,C16*%
X118775000Y-83900000D03*
X116700000Y-83900000D03*
%TD*%
D12*
%TO.C,R33*%
X134400000Y-77800000D03*
X134400000Y-79800000D03*
%TD*%
D20*
%TO.C,R22*%
X165800000Y-100600000D03*
X163800000Y-100600000D03*
%TD*%
D16*
%TO.C,R5*%
X121987900Y-85416000D03*
X123987900Y-85416000D03*
%TD*%
D23*
%TO.C,C30*%
X141448700Y-94996000D03*
X139373700Y-94996000D03*
%TD*%
D10*
%TO.C,C34*%
X132462500Y-75500000D03*
X134537500Y-75500000D03*
%TD*%
D11*
%TO.C,C10*%
X180886000Y-68914100D03*
X180886000Y-70989100D03*
%TD*%
D23*
%TO.C,C45*%
X151475000Y-93500000D03*
X149400000Y-93500000D03*
%TD*%
D10*
%TO.C,C48*%
X144362500Y-83900000D03*
X146437500Y-83900000D03*
%TD*%
D11*
%TO.C,C19*%
X108229400Y-87460000D03*
X108229400Y-89535000D03*
%TD*%
%TO.C,C47*%
X149900000Y-81662500D03*
X149900000Y-83737500D03*
%TD*%
%TO.C,C13*%
X145986400Y-66624200D03*
X145986400Y-68699200D03*
%TD*%
D10*
%TO.C,C50*%
X134262500Y-69600000D03*
X136337500Y-69600000D03*
%TD*%
D22*
%TO.C,FB3*%
X116890800Y-79800000D03*
X116890800Y-81625000D03*
%TD*%
D23*
%TO.C,C27*%
X120237500Y-94100000D03*
X118162500Y-94100000D03*
%TD*%
D35*
%TO.C,C12*%
X178000000Y-88000000D03*
X178000000Y-80600000D03*
%TD*%
D12*
%TO.C,R30*%
X150300000Y-85900000D03*
X150300000Y-87900000D03*
%TD*%
D27*
%TO.C,J9*%
X170200000Y-83025000D03*
D28*
X170200000Y-85565000D03*
%TD*%
D19*
%TO.C,J5*%
X185420000Y-63500000D03*
%TD*%
D24*
%TO.C,FB1*%
X157151700Y-67665600D03*
X158976700Y-67665600D03*
%TD*%
D20*
%TO.C,R7*%
X126500000Y-94500000D03*
X124500000Y-94500000D03*
%TD*%
D11*
%TO.C,C5*%
X152317600Y-71501000D03*
X152317600Y-73576000D03*
%TD*%
D16*
%TO.C,R28*%
X123200000Y-75400000D03*
X125200000Y-75400000D03*
%TD*%
D36*
%TO.C,U5*%
X144925000Y-92100000D03*
X144925000Y-93050000D03*
X144925000Y-94000000D03*
X147200000Y-94000000D03*
X147200000Y-93050000D03*
X147200000Y-92100000D03*
%TD*%
D23*
%TO.C,C46*%
X151475000Y-90500000D03*
X149400000Y-90500000D03*
%TD*%
D35*
%TO.C,C11*%
X174294800Y-70298800D03*
X174294800Y-62898800D03*
%TD*%
D37*
%TO.C,RV1*%
X165300000Y-95700000D03*
X167840000Y-95700000D03*
X170380000Y-95700000D03*
%TD*%
D12*
%TO.C,R3*%
X113715800Y-81362800D03*
X113715800Y-83362800D03*
%TD*%
D16*
%TO.C,R13*%
X123100000Y-69400000D03*
X125100000Y-69400000D03*
%TD*%
D34*
%TO.C,R6*%
X123100000Y-92200000D03*
X123100000Y-90200000D03*
%TD*%
D20*
%TO.C,R2*%
X110312200Y-84277200D03*
X108312200Y-84277200D03*
%TD*%
D12*
%TO.C,R18*%
X158900000Y-82500000D03*
X158900000Y-84500000D03*
%TD*%
D11*
%TO.C,C35*%
X110400000Y-69362500D03*
X110400000Y-71437500D03*
%TD*%
%TO.C,C4*%
X152336400Y-66645700D03*
X152336400Y-68720700D03*
%TD*%
%TO.C,C9*%
X149307600Y-71501000D03*
X149307600Y-73576000D03*
%TD*%
D16*
%TO.C,R11*%
X140200000Y-91500000D03*
X142200000Y-91500000D03*
%TD*%
D25*
%TO.C,C43*%
X146200000Y-99237500D03*
X146200000Y-97162500D03*
%TD*%
D23*
%TO.C,C32*%
X112837500Y-74500000D03*
X110762500Y-74500000D03*
%TD*%
D11*
%TO.C,C2*%
X187198000Y-68892600D03*
X187198000Y-70967600D03*
%TD*%
D23*
%TO.C,C25*%
X123937500Y-82700000D03*
X121862500Y-82700000D03*
%TD*%
D34*
%TO.C,R35*%
X137300000Y-74200000D03*
X137300000Y-72200000D03*
%TD*%
D38*
X138887200Y-93370400D03*
X130962400Y-92252800D03*
X135636000Y-61722000D03*
X102870000Y-65278000D03*
X115400000Y-96100000D03*
X162200000Y-101600000D03*
X141986000Y-103124000D03*
X102717600Y-88442800D03*
X142700000Y-84400000D03*
X103174800Y-91998800D03*
X117348000Y-75565000D03*
X153670000Y-61722000D03*
X133800000Y-91800000D03*
X112014000Y-61976000D03*
X138430000Y-82169000D03*
X138000000Y-85100000D03*
X122555000Y-93599000D03*
X101041200Y-84074000D03*
X122047000Y-77200000D03*
X98806000Y-85344000D03*
X129794000Y-61722000D03*
X163322000Y-80772000D03*
X151000000Y-80800000D03*
X108500000Y-96500000D03*
X150600000Y-65300000D03*
X97028000Y-86614000D03*
X150000000Y-77700000D03*
X130429000Y-88138000D03*
X108000000Y-76200000D03*
X117856000Y-61722000D03*
X137541000Y-79121000D03*
X147828000Y-61722000D03*
X141732000Y-61722000D03*
X115200000Y-84600000D03*
X157100000Y-94600000D03*
X157175200Y-64897000D03*
X102616000Y-99568000D03*
X102768400Y-83972400D03*
X157226000Y-70612000D03*
X153924000Y-103124000D03*
X106121200Y-82194400D03*
X103022400Y-68122800D03*
X146600000Y-90500000D03*
X105664000Y-103124000D03*
X120500000Y-84000000D03*
X163068000Y-86487000D03*
X123698000Y-61722000D03*
X102870000Y-77724000D03*
X139100000Y-73100000D03*
X119000000Y-90800000D03*
X102819200Y-82550000D03*
X112014000Y-103124000D03*
X169926000Y-77724000D03*
X117348000Y-70866000D03*
X157100000Y-88500000D03*
X132100000Y-79500000D03*
X157226000Y-101854000D03*
X111506000Y-89027000D03*
X128524000Y-84709000D03*
X128350500Y-88300000D03*
X169037000Y-68961000D03*
X132461000Y-85344000D03*
X145161000Y-95504000D03*
X136144000Y-103124000D03*
X168600000Y-98300000D03*
X157226000Y-76708000D03*
X131318000Y-73787000D03*
X141224000Y-75819000D03*
X133100000Y-67400000D03*
X129794000Y-103124000D03*
X147828000Y-71628000D03*
X138100000Y-87700000D03*
X147828000Y-103124000D03*
X137414000Y-99009200D03*
X117856000Y-103124000D03*
X142900000Y-80700000D03*
X116000000Y-90800000D03*
X148400000Y-85600000D03*
X153900000Y-76900000D03*
X141200000Y-89600000D03*
X123952000Y-103124000D03*
X168529000Y-80645000D03*
X161300000Y-96100000D03*
X126600000Y-73600000D03*
X112400000Y-79500000D03*
X163900000Y-91300000D03*
X128676400Y-94894400D03*
X122000000Y-96000000D03*
X157000000Y-82200000D03*
X111800000Y-66400000D03*
X111500000Y-85800000D03*
X105664000Y-61976000D03*
X142400000Y-69000000D03*
X159639000Y-69977000D03*
X105968800Y-87325200D03*
X120650000Y-69342000D03*
X152273000Y-86995000D03*
X159258000Y-64389000D03*
X150600000Y-70400000D03*
X169164000Y-63754000D03*
X135763000Y-75565000D03*
X170053000Y-73279000D03*
X114400000Y-75500000D03*
X138600000Y-80300000D03*
X147700000Y-73576000D03*
X109800000Y-94037500D03*
X127900000Y-97800000D03*
X130900000Y-86000000D03*
X120650500Y-71000000D03*
X147600000Y-98500000D03*
X143812500Y-75187500D03*
X120900000Y-80500000D03*
X133604000Y-88900000D03*
X144300000Y-70300000D03*
X154900000Y-79700000D03*
X143600000Y-82100000D03*
X126300000Y-77200000D03*
X123200000Y-70800000D03*
X153100000Y-85600000D03*
X157000000Y-84400000D03*
M02*
