%TF.GenerationSoftware,KiCad,Pcbnew,7.0.5*%
%TF.CreationDate,2023-08-07T14:42:52-07:00*%
%TF.ProjectId,TransimpedianceAmplifierV2,5472616e-7369-46d7-9065-6469616e6365,rev?*%
%TF.SameCoordinates,Original*%
%TF.FileFunction,Soldermask,Bot*%
%TF.FilePolarity,Negative*%
%FSLAX46Y46*%
G04 Gerber Fmt 4.6, Leading zero omitted, Abs format (unit mm)*
G04 Created by KiCad (PCBNEW 7.0.5) date 2023-08-07 14:42:52*
%MOMM*%
%LPD*%
G01*
G04 APERTURE LIST*
%ADD10C,2.050000*%
%ADD11C,2.250000*%
%ADD12C,5.600000*%
%ADD13R,1.700000X1.700000*%
%ADD14O,1.700000X1.700000*%
%ADD15C,1.440000*%
%ADD16C,1.000000*%
G04 APERTURE END LIST*
D10*
%TO.C,J3*%
X98806000Y-92710000D03*
D11*
X96266000Y-90170000D03*
X96266000Y-95250000D03*
X101346000Y-90170000D03*
X101346000Y-95250000D03*
%TD*%
D12*
%TO.C,J2*%
X99060000Y-101600000D03*
%TD*%
D10*
%TO.C,J7*%
X98983800Y-72847200D03*
D11*
X96443800Y-70307200D03*
X96443800Y-75387200D03*
X101523800Y-70307200D03*
X101523800Y-75387200D03*
%TD*%
D12*
%TO.C,J6*%
X185420000Y-101600000D03*
%TD*%
D13*
%TO.C,J8*%
X185420000Y-76200000D03*
D14*
X185420000Y-78740000D03*
X185420000Y-81280000D03*
%TD*%
D12*
%TO.C,J1*%
X99060000Y-63500000D03*
%TD*%
D13*
%TO.C,JP1*%
X165700000Y-88040000D03*
D14*
X165700000Y-85500000D03*
X165700000Y-82960000D03*
%TD*%
D13*
%TO.C,J9*%
X170200000Y-83025000D03*
D14*
X170200000Y-85565000D03*
%TD*%
D12*
%TO.C,J5*%
X185420000Y-63500000D03*
%TD*%
D15*
%TO.C,RV1*%
X165300000Y-95700000D03*
X167840000Y-95700000D03*
X170380000Y-95700000D03*
%TD*%
D16*
X138887200Y-93370400D03*
X130962400Y-92252800D03*
X135636000Y-61722000D03*
X102870000Y-65278000D03*
X115400000Y-96100000D03*
X162200000Y-101600000D03*
X141986000Y-103124000D03*
X102717600Y-88442800D03*
X142700000Y-84400000D03*
X103174800Y-91998800D03*
X117348000Y-75565000D03*
X153670000Y-61722000D03*
X133800000Y-91800000D03*
X112014000Y-61976000D03*
X138430000Y-82169000D03*
X138000000Y-85100000D03*
X122555000Y-93599000D03*
X101041200Y-84074000D03*
X122047000Y-77200000D03*
X98806000Y-85344000D03*
X129794000Y-61722000D03*
X163322000Y-80772000D03*
X151000000Y-80800000D03*
X108500000Y-96500000D03*
X150600000Y-65300000D03*
X97028000Y-86614000D03*
X150000000Y-77700000D03*
X130429000Y-88138000D03*
X108000000Y-76200000D03*
X117856000Y-61722000D03*
X137541000Y-79121000D03*
X147828000Y-61722000D03*
X141732000Y-61722000D03*
X115200000Y-84600000D03*
X157100000Y-94600000D03*
X157175200Y-64897000D03*
X102616000Y-99568000D03*
X102768400Y-83972400D03*
X157226000Y-70612000D03*
X153924000Y-103124000D03*
X106121200Y-82194400D03*
X103022400Y-68122800D03*
X146600000Y-90500000D03*
X105664000Y-103124000D03*
X120500000Y-84000000D03*
X163068000Y-86487000D03*
X123698000Y-61722000D03*
X102870000Y-77724000D03*
X139100000Y-73100000D03*
X119000000Y-90800000D03*
X102819200Y-82550000D03*
X112014000Y-103124000D03*
X169926000Y-77724000D03*
X117348000Y-70866000D03*
X157100000Y-88500000D03*
X132100000Y-79500000D03*
X157226000Y-101854000D03*
X111506000Y-89027000D03*
X128524000Y-84709000D03*
X128350500Y-88300000D03*
X169037000Y-68961000D03*
X132461000Y-85344000D03*
X145161000Y-95504000D03*
X136144000Y-103124000D03*
X168600000Y-98300000D03*
X157226000Y-76708000D03*
X131318000Y-73787000D03*
X141224000Y-75819000D03*
X133100000Y-67400000D03*
X129794000Y-103124000D03*
X147828000Y-71628000D03*
X138100000Y-87700000D03*
X147828000Y-103124000D03*
X137414000Y-99009200D03*
X117856000Y-103124000D03*
X142900000Y-80700000D03*
X116000000Y-90800000D03*
X148400000Y-85600000D03*
X153900000Y-76900000D03*
X141200000Y-89600000D03*
X123952000Y-103124000D03*
X168529000Y-80645000D03*
X161300000Y-96100000D03*
X126600000Y-73600000D03*
X112400000Y-79500000D03*
X163900000Y-91300000D03*
X128676400Y-94894400D03*
X122000000Y-96000000D03*
X157000000Y-82200000D03*
X111800000Y-66400000D03*
X111500000Y-85800000D03*
X105664000Y-61976000D03*
X142400000Y-69000000D03*
X159639000Y-69977000D03*
X105968800Y-87325200D03*
X120650000Y-69342000D03*
X152273000Y-86995000D03*
X159258000Y-64389000D03*
X150600000Y-70400000D03*
X169164000Y-63754000D03*
X135763000Y-75565000D03*
X170053000Y-73279000D03*
X114400000Y-75500000D03*
X138600000Y-80300000D03*
X147700000Y-73576000D03*
X109800000Y-94037500D03*
X127900000Y-97800000D03*
X130900000Y-86000000D03*
X120650500Y-71000000D03*
X147600000Y-98500000D03*
X143812500Y-75187500D03*
X120900000Y-80500000D03*
X133604000Y-88900000D03*
X144300000Y-70300000D03*
X154900000Y-79700000D03*
X143600000Y-82100000D03*
X126300000Y-77200000D03*
X123200000Y-70800000D03*
X153100000Y-85600000D03*
X157000000Y-84400000D03*
M02*
