%TF.GenerationSoftware,KiCad,Pcbnew,7.0.5*%
%TF.CreationDate,2023-08-07T14:42:52-07:00*%
%TF.ProjectId,TransimpedianceAmplifierV2,5472616e-7369-46d7-9065-6469616e6365,rev?*%
%TF.SameCoordinates,Original*%
%TF.FileFunction,Copper,L2,Bot*%
%TF.FilePolarity,Positive*%
%FSLAX46Y46*%
G04 Gerber Fmt 4.6, Leading zero omitted, Abs format (unit mm)*
G04 Created by KiCad (PCBNEW 7.0.5) date 2023-08-07 14:42:52*
%MOMM*%
%LPD*%
G01*
G04 APERTURE LIST*
%TA.AperFunction,ComponentPad*%
%ADD10C,2.050000*%
%TD*%
%TA.AperFunction,ComponentPad*%
%ADD11C,2.250000*%
%TD*%
%TA.AperFunction,ComponentPad*%
%ADD12C,5.600000*%
%TD*%
%TA.AperFunction,ComponentPad*%
%ADD13R,1.700000X1.700000*%
%TD*%
%TA.AperFunction,ComponentPad*%
%ADD14O,1.700000X1.700000*%
%TD*%
%TA.AperFunction,ComponentPad*%
%ADD15C,1.440000*%
%TD*%
%TA.AperFunction,ViaPad*%
%ADD16C,1.000000*%
%TD*%
%TA.AperFunction,Conductor*%
%ADD17C,0.500000*%
%TD*%
G04 APERTURE END LIST*
D10*
%TO.P,J3,1,Pin_1*%
%TO.N,/TransimpedanceFrontEnd/Input*%
X98806000Y-92710000D03*
D11*
%TO.P,J3,2,Pin_2*%
%TO.N,GND*%
X96266000Y-90170000D03*
X96266000Y-95250000D03*
X101346000Y-90170000D03*
X101346000Y-95250000D03*
%TD*%
D12*
%TO.P,J2,1,Pin_1*%
%TO.N,GND*%
X99060000Y-101600000D03*
%TD*%
D10*
%TO.P,J7,1,Pin_1*%
%TO.N,/OutputOffset/Output*%
X98983800Y-72847200D03*
D11*
%TO.P,J7,2,Pin_2*%
%TO.N,GND*%
X96443800Y-70307200D03*
X96443800Y-75387200D03*
X101523800Y-70307200D03*
X101523800Y-75387200D03*
%TD*%
D12*
%TO.P,J6,1,Pin_1*%
%TO.N,GND*%
X185420000Y-101600000D03*
%TD*%
D13*
%TO.P,J8,1,Pin_1*%
%TO.N,Net-(J8-Pin_1)*%
X185420000Y-76200000D03*
D14*
%TO.P,J8,2,Pin_2*%
%TO.N,GND*%
X185420000Y-78740000D03*
%TO.P,J8,3,Pin_3*%
%TO.N,Net-(J8-Pin_3)*%
X185420000Y-81280000D03*
%TD*%
D12*
%TO.P,J1,1,Pin_1*%
%TO.N,GND*%
X99060000Y-63500000D03*
%TD*%
D13*
%TO.P,JP1,1,A*%
%TO.N,Net-(JP1-A)*%
X165700000Y-88040000D03*
D14*
%TO.P,JP1,2,C*%
%TO.N,Net-(JP1-C)*%
X165700000Y-85500000D03*
%TO.P,JP1,3,B*%
%TO.N,Net-(J9-Pin_1)*%
X165700000Y-82960000D03*
%TD*%
D13*
%TO.P,J9,1,Pin_1*%
%TO.N,Net-(J9-Pin_1)*%
X170200000Y-83025000D03*
D14*
%TO.P,J9,2,Pin_2*%
%TO.N,GND*%
X170200000Y-85565000D03*
%TD*%
D12*
%TO.P,J5,1,Pin_1*%
%TO.N,GND*%
X185420000Y-63500000D03*
%TD*%
D15*
%TO.P,RV1,1,1*%
%TO.N,Net-(R18-Pad2)*%
X165300000Y-95700000D03*
%TO.P,RV1,2,2*%
%TO.N,Net-(JP1-A)*%
X167840000Y-95700000D03*
%TO.P,RV1,3,3*%
%TO.N,Net-(R19-Pad2)*%
X170380000Y-95700000D03*
%TD*%
D16*
%TO.N,GND*%
X138887200Y-93370400D03*
X130962400Y-92252800D03*
X135636000Y-61722000D03*
X102870000Y-65278000D03*
X115400000Y-96100000D03*
X162200000Y-101600000D03*
X141986000Y-103124000D03*
X102717600Y-88442800D03*
X142700000Y-84400000D03*
X103174800Y-91998800D03*
X117348000Y-75565000D03*
X153670000Y-61722000D03*
X133800000Y-91800000D03*
X112014000Y-61976000D03*
X138430000Y-82169000D03*
X138000000Y-85100000D03*
X122555000Y-93599000D03*
X101041200Y-84074000D03*
X122047000Y-77200000D03*
X98806000Y-85344000D03*
X129794000Y-61722000D03*
X163322000Y-80772000D03*
X151000000Y-80800000D03*
X108500000Y-96500000D03*
X150600000Y-65300000D03*
X97028000Y-86614000D03*
X150000000Y-77700000D03*
X130429000Y-88138000D03*
X108000000Y-76200000D03*
X117856000Y-61722000D03*
X137541000Y-79121000D03*
X147828000Y-61722000D03*
X141732000Y-61722000D03*
X115200000Y-84600000D03*
X157100000Y-94600000D03*
X157175200Y-64897000D03*
X102616000Y-99568000D03*
X102768400Y-83972400D03*
X157226000Y-70612000D03*
X153924000Y-103124000D03*
X106121200Y-82194400D03*
X103022400Y-68122800D03*
X146600000Y-90500000D03*
X105664000Y-103124000D03*
X120500000Y-84000000D03*
X163068000Y-86487000D03*
X123698000Y-61722000D03*
X102870000Y-77724000D03*
X139100000Y-73100000D03*
X119000000Y-90800000D03*
X102819200Y-82550000D03*
X112014000Y-103124000D03*
X169926000Y-77724000D03*
X117348000Y-70866000D03*
X157100000Y-88500000D03*
X132100000Y-79500000D03*
X157226000Y-101854000D03*
X111506000Y-89027000D03*
X128524000Y-84709000D03*
X128350500Y-88300000D03*
X169037000Y-68961000D03*
X132461000Y-85344000D03*
X145161000Y-95504000D03*
X136144000Y-103124000D03*
X168600000Y-98300000D03*
X157226000Y-76708000D03*
X131318000Y-73787000D03*
X141224000Y-75819000D03*
X133100000Y-67400000D03*
X129794000Y-103124000D03*
X147828000Y-71628000D03*
X138100000Y-87700000D03*
X147828000Y-103124000D03*
X137414000Y-99009200D03*
X117856000Y-103124000D03*
X142900000Y-80700000D03*
X116000000Y-90800000D03*
X148400000Y-85600000D03*
X153900000Y-76900000D03*
X141200000Y-89600000D03*
X123952000Y-103124000D03*
X168529000Y-80645000D03*
X161300000Y-96100000D03*
X126600000Y-73600000D03*
X112400000Y-79500000D03*
X163900000Y-91300000D03*
X128676400Y-94894400D03*
X122000000Y-96000000D03*
X157000000Y-82200000D03*
X111800000Y-66400000D03*
X111500000Y-85800000D03*
X105664000Y-61976000D03*
X142400000Y-69000000D03*
X159639000Y-69977000D03*
X105968800Y-87325200D03*
X120650000Y-69342000D03*
X152273000Y-86995000D03*
X159258000Y-64389000D03*
X150600000Y-70400000D03*
X169164000Y-63754000D03*
X135763000Y-75565000D03*
X170053000Y-73279000D03*
%TO.N,VSS*%
X114400000Y-75500000D03*
X138600000Y-80300000D03*
X147700000Y-73576000D03*
X109800000Y-94037500D03*
X127900000Y-97800000D03*
%TO.N,VDD*%
X130900000Y-86000000D03*
X120650500Y-71000000D03*
X147600000Y-98500000D03*
X143812500Y-75187500D03*
X120900000Y-80500000D03*
X133604000Y-88900000D03*
X144300000Y-70300000D03*
%TO.N,Net-(FB7-Pad2)*%
X154900000Y-79700000D03*
X143600000Y-82100000D03*
%TO.N,/OutputOffset/Input*%
X126300000Y-77200000D03*
X123200000Y-70800000D03*
%TO.N,/OutputOffset/Vref+*%
X153100000Y-85600000D03*
X157000000Y-84400000D03*
%TD*%
D17*
%TO.N,GND*%
X141600000Y-82800000D02*
X141600000Y-83300000D01*
X141600000Y-83300000D02*
X142700000Y-84400000D01*
X141600000Y-82000000D02*
X141600000Y-82800000D01*
X150000000Y-79800000D02*
X151000000Y-80800000D01*
X133800000Y-100780000D02*
X136144000Y-103124000D01*
X153100000Y-77700000D02*
X153900000Y-76900000D01*
X150000000Y-77700000D02*
X153100000Y-77700000D01*
X139100000Y-72300000D02*
X142400000Y-69000000D01*
X139100000Y-73100000D02*
X139100000Y-72300000D01*
X142900000Y-80700000D02*
X141600000Y-82000000D01*
X150000000Y-77700000D02*
X150000000Y-79800000D01*
X133800000Y-91800000D02*
X133800000Y-100780000D01*
%TO.N,VSS*%
X122301000Y-88265000D02*
X122301000Y-91567000D01*
X138600000Y-80300000D02*
X142412000Y-76488000D01*
X119761000Y-97282000D02*
X120650000Y-98171000D01*
X136525000Y-83947000D02*
X136525000Y-82375000D01*
X127529000Y-98171000D02*
X127900000Y-97800000D01*
X119761000Y-94037500D02*
X109800000Y-94037500D01*
X114400000Y-80364000D02*
X122301000Y-88265000D01*
X132300000Y-88172000D02*
X136525000Y-83947000D01*
X142412000Y-76488000D02*
X144788000Y-76488000D01*
X119761000Y-94037500D02*
X119761000Y-97282000D01*
X147700000Y-73576000D02*
X144788000Y-76488000D01*
X114400000Y-75500000D02*
X114400000Y-80364000D01*
X127900000Y-97800000D02*
X132300000Y-93400000D01*
X132300000Y-93400000D02*
X132300000Y-88172000D01*
X120650000Y-98171000D02*
X127529000Y-98171000D01*
X136525000Y-82375000D02*
X138600000Y-80300000D01*
X122301000Y-91567000D02*
X119830500Y-94037500D01*
X119830500Y-94037500D02*
X119761000Y-94037500D01*
%TO.N,VDD*%
X145700000Y-98500000D02*
X147600000Y-98500000D01*
X143812500Y-75187500D02*
X143812500Y-70787500D01*
X130100000Y-86800000D02*
X130900000Y-86000000D01*
X130900000Y-86000000D02*
X130900000Y-83984000D01*
X143174000Y-74549000D02*
X143812500Y-75187500D01*
X120900000Y-71249500D02*
X120650500Y-71000000D01*
X127200000Y-86800000D02*
X130100000Y-86800000D01*
X130900000Y-83984000D02*
X140335000Y-74549000D01*
X133604000Y-88900000D02*
X136100000Y-88900000D01*
X120900000Y-80500000D02*
X120900000Y-71249500D01*
X136100000Y-88900000D02*
X145700000Y-98500000D01*
X123000000Y-82600000D02*
X127200000Y-86800000D01*
X143812500Y-70787500D02*
X144300000Y-70300000D01*
X123000000Y-82600000D02*
X120900000Y-80500000D01*
X140335000Y-74549000D02*
X143174000Y-74549000D01*
%TO.N,Net-(FB7-Pad2)*%
X151700000Y-82900000D02*
X154900000Y-79700000D01*
X143600000Y-82100000D02*
X144400000Y-82900000D01*
X144400000Y-82900000D02*
X151700000Y-82900000D01*
%TO.N,/OutputOffset/Input*%
X126300000Y-77200000D02*
X125400000Y-77200000D01*
X125400000Y-77200000D02*
X123200000Y-75000000D01*
X123200000Y-75000000D02*
X123200000Y-70800000D01*
%TO.N,/OutputOffset/Vref+*%
X155800000Y-85600000D02*
X153100000Y-85600000D01*
X157000000Y-84400000D02*
X155800000Y-85600000D01*
%TD*%
%TA.AperFunction,Conductor*%
%TO.N,GND*%
G36*
X185421279Y-58420552D02*
G01*
X185637547Y-58429497D01*
X185842732Y-58438456D01*
X185847654Y-58438870D01*
X186065758Y-58466057D01*
X186270849Y-58493058D01*
X186275420Y-58493837D01*
X186490328Y-58538898D01*
X186692714Y-58583766D01*
X186696969Y-58584869D01*
X186907452Y-58647533D01*
X187105378Y-58709939D01*
X187109180Y-58711277D01*
X187313348Y-58790944D01*
X187314453Y-58791388D01*
X187450777Y-58847856D01*
X187505763Y-58870632D01*
X187509246Y-58872202D01*
X187706123Y-58968450D01*
X187707341Y-58969064D01*
X187837930Y-59037045D01*
X187891061Y-59064704D01*
X187894170Y-59066437D01*
X188082329Y-59178555D01*
X188083839Y-59179485D01*
X188258522Y-59290771D01*
X188261212Y-59292586D01*
X188439439Y-59419838D01*
X188441155Y-59421109D01*
X188605405Y-59547142D01*
X188607733Y-59549019D01*
X188774843Y-59690554D01*
X188776648Y-59692143D01*
X188929339Y-59832059D01*
X188931255Y-59833893D01*
X189086104Y-59988742D01*
X189087952Y-59990673D01*
X189227844Y-60143338D01*
X189229444Y-60145155D01*
X189370979Y-60312265D01*
X189372856Y-60314593D01*
X189498889Y-60478843D01*
X189500160Y-60480559D01*
X189627412Y-60658786D01*
X189629239Y-60661494D01*
X189740490Y-60836123D01*
X189741443Y-60837669D01*
X189853561Y-61025828D01*
X189855294Y-61028937D01*
X189950896Y-61212583D01*
X189951582Y-61213942D01*
X189977400Y-61266754D01*
X190047786Y-61410731D01*
X190049366Y-61414235D01*
X190128596Y-61605512D01*
X190129074Y-61606701D01*
X190161194Y-61689017D01*
X190208708Y-61810785D01*
X190210072Y-61814657D01*
X190272463Y-62012540D01*
X190335124Y-62223013D01*
X190336232Y-62227286D01*
X190381103Y-62429682D01*
X190426157Y-62644559D01*
X190426947Y-62649192D01*
X190453943Y-62854252D01*
X190481126Y-63072322D01*
X190481543Y-63077288D01*
X190490518Y-63282843D01*
X190499447Y-63498718D01*
X190499500Y-63501280D01*
X190499500Y-101598719D01*
X190499447Y-101601281D01*
X190490518Y-101817156D01*
X190481543Y-102022710D01*
X190481126Y-102027676D01*
X190453943Y-102245746D01*
X190426947Y-102450806D01*
X190426157Y-102455439D01*
X190381103Y-102670316D01*
X190336232Y-102872712D01*
X190335124Y-102876985D01*
X190272463Y-103087458D01*
X190210072Y-103285341D01*
X190208700Y-103289237D01*
X190129074Y-103493297D01*
X190128596Y-103494486D01*
X190049366Y-103685763D01*
X190047786Y-103689267D01*
X189951602Y-103886016D01*
X189950896Y-103887415D01*
X189855294Y-104071061D01*
X189853561Y-104074170D01*
X189741443Y-104262329D01*
X189740472Y-104263905D01*
X189629244Y-104438497D01*
X189627412Y-104441212D01*
X189500160Y-104619439D01*
X189498889Y-104621155D01*
X189372856Y-104785405D01*
X189370979Y-104787733D01*
X189229444Y-104954843D01*
X189227844Y-104956660D01*
X189087952Y-105109325D01*
X189086082Y-105111279D01*
X188931279Y-105266082D01*
X188929325Y-105267952D01*
X188776660Y-105407844D01*
X188774843Y-105409444D01*
X188607733Y-105550979D01*
X188605405Y-105552856D01*
X188441155Y-105678889D01*
X188439439Y-105680160D01*
X188261212Y-105807412D01*
X188258497Y-105809244D01*
X188083905Y-105920472D01*
X188082329Y-105921443D01*
X187894170Y-106033561D01*
X187891061Y-106035294D01*
X187707415Y-106130896D01*
X187706016Y-106131602D01*
X187509267Y-106227786D01*
X187505763Y-106229366D01*
X187314486Y-106308596D01*
X187313297Y-106309074D01*
X187109237Y-106388700D01*
X187105341Y-106390072D01*
X186907458Y-106452463D01*
X186696985Y-106515124D01*
X186692712Y-106516232D01*
X186490316Y-106561103D01*
X186275439Y-106606157D01*
X186270806Y-106606947D01*
X186065746Y-106633943D01*
X185847676Y-106661126D01*
X185842710Y-106661543D01*
X185637266Y-106670513D01*
X185427125Y-106679205D01*
X185421280Y-106679447D01*
X185418720Y-106679500D01*
X99061280Y-106679500D01*
X99058719Y-106679447D01*
X99052264Y-106679180D01*
X98842732Y-106670513D01*
X98637288Y-106661543D01*
X98632322Y-106661126D01*
X98414252Y-106633943D01*
X98209192Y-106606947D01*
X98204559Y-106606157D01*
X97989682Y-106561103D01*
X97787286Y-106516232D01*
X97783013Y-106515124D01*
X97572540Y-106452463D01*
X97374657Y-106390072D01*
X97370785Y-106388708D01*
X97238255Y-106336995D01*
X97166701Y-106309074D01*
X97165512Y-106308596D01*
X96974235Y-106229366D01*
X96970731Y-106227786D01*
X96916184Y-106201119D01*
X96773942Y-106131582D01*
X96772583Y-106130896D01*
X96588937Y-106035294D01*
X96585828Y-106033561D01*
X96397669Y-105921443D01*
X96396123Y-105920490D01*
X96221494Y-105809239D01*
X96218786Y-105807412D01*
X96040559Y-105680160D01*
X96038843Y-105678889D01*
X95874593Y-105552856D01*
X95872265Y-105550979D01*
X95705155Y-105409444D01*
X95703338Y-105407844D01*
X95550673Y-105267952D01*
X95548742Y-105266104D01*
X95393893Y-105111255D01*
X95392059Y-105109339D01*
X95252143Y-104956648D01*
X95250554Y-104954843D01*
X95109019Y-104787733D01*
X95107142Y-104785405D01*
X94981109Y-104621155D01*
X94979838Y-104619439D01*
X94852580Y-104441203D01*
X94850771Y-104438522D01*
X94739485Y-104263839D01*
X94738555Y-104262329D01*
X94626437Y-104074170D01*
X94624704Y-104071061D01*
X94597045Y-104017930D01*
X94529064Y-103887341D01*
X94528450Y-103886123D01*
X94432202Y-103689246D01*
X94430632Y-103685763D01*
X94351402Y-103494486D01*
X94350943Y-103493346D01*
X94271277Y-103289180D01*
X94269939Y-103285378D01*
X94207529Y-103087438D01*
X94196648Y-103050890D01*
X94144869Y-102876969D01*
X94143766Y-102872712D01*
X94098896Y-102670316D01*
X94053837Y-102455420D01*
X94053058Y-102450849D01*
X94026055Y-102245746D01*
X93998870Y-102027654D01*
X93998456Y-102022732D01*
X93989502Y-101817672D01*
X93980552Y-101601280D01*
X93980500Y-101598719D01*
X93980500Y-92710000D01*
X97275783Y-92710000D01*
X97294623Y-92949382D01*
X97350674Y-93182853D01*
X97350678Y-93182865D01*
X97442565Y-93404702D01*
X97568026Y-93609436D01*
X97568028Y-93609439D01*
X97723973Y-93792027D01*
X97906561Y-93947972D01*
X97909231Y-93949608D01*
X98111297Y-94073434D01*
X98208047Y-94113508D01*
X98333137Y-94165323D01*
X98566621Y-94221377D01*
X98806000Y-94240217D01*
X99045379Y-94221377D01*
X99278863Y-94165323D01*
X99500704Y-94073433D01*
X99559342Y-94037500D01*
X108794659Y-94037500D01*
X108813975Y-94233629D01*
X108833046Y-94296496D01*
X108869863Y-94417867D01*
X108871188Y-94422233D01*
X108964086Y-94596032D01*
X108964090Y-94596039D01*
X109089116Y-94748383D01*
X109241460Y-94873409D01*
X109241467Y-94873413D01*
X109415266Y-94966311D01*
X109415269Y-94966311D01*
X109415273Y-94966314D01*
X109603868Y-95023524D01*
X109800000Y-95042841D01*
X109996132Y-95023524D01*
X110184727Y-94966314D01*
X110358538Y-94873410D01*
X110428312Y-94816147D01*
X110492623Y-94788834D01*
X110506978Y-94788000D01*
X118886500Y-94788000D01*
X118953539Y-94807685D01*
X118999294Y-94860489D01*
X119010500Y-94912000D01*
X119010500Y-97218294D01*
X119009191Y-97236263D01*
X119005710Y-97260025D01*
X119010264Y-97312064D01*
X119010500Y-97317470D01*
X119010500Y-97325712D01*
X119014202Y-97357391D01*
X119014386Y-97359185D01*
X119021000Y-97434792D01*
X119022461Y-97441867D01*
X119022403Y-97441878D01*
X119024034Y-97449237D01*
X119024092Y-97449224D01*
X119025757Y-97456249D01*
X119025758Y-97456254D01*
X119025759Y-97456255D01*
X119039736Y-97494659D01*
X119051708Y-97527551D01*
X119052299Y-97529253D01*
X119076182Y-97601326D01*
X119079236Y-97607874D01*
X119079182Y-97607898D01*
X119082470Y-97614688D01*
X119082521Y-97614663D01*
X119085761Y-97621113D01*
X119085762Y-97621114D01*
X119085763Y-97621117D01*
X119127494Y-97684567D01*
X119128443Y-97686058D01*
X119150213Y-97721353D01*
X119168289Y-97750657D01*
X119172766Y-97756319D01*
X119172719Y-97756356D01*
X119177482Y-97762202D01*
X119177528Y-97762164D01*
X119182173Y-97767699D01*
X119237363Y-97819768D01*
X119238657Y-97821025D01*
X120074270Y-98656638D01*
X120086051Y-98670270D01*
X120100388Y-98689528D01*
X120140409Y-98723111D01*
X120144397Y-98726766D01*
X120150217Y-98732586D01*
X120150222Y-98732590D01*
X120150223Y-98732591D01*
X120175263Y-98752390D01*
X120176644Y-98753515D01*
X120234786Y-98802302D01*
X120234787Y-98802302D01*
X120234789Y-98802304D01*
X120240818Y-98806270D01*
X120240785Y-98806319D01*
X120247147Y-98810372D01*
X120247179Y-98810321D01*
X120253319Y-98814108D01*
X120253323Y-98814111D01*
X120291278Y-98831809D01*
X120322137Y-98846200D01*
X120323760Y-98846986D01*
X120391562Y-98881038D01*
X120398357Y-98883511D01*
X120398336Y-98883567D01*
X120405457Y-98886043D01*
X120405476Y-98885986D01*
X120412319Y-98888253D01*
X120412327Y-98888257D01*
X120486748Y-98903623D01*
X120488371Y-98903983D01*
X120562279Y-98921500D01*
X120562280Y-98921500D01*
X120562284Y-98921501D01*
X120569453Y-98922339D01*
X120569446Y-98922398D01*
X120576944Y-98923164D01*
X120576950Y-98923105D01*
X120584139Y-98923734D01*
X120584143Y-98923733D01*
X120584144Y-98923734D01*
X120612229Y-98922916D01*
X120660032Y-98921526D01*
X120661835Y-98921500D01*
X127465295Y-98921500D01*
X127483265Y-98922809D01*
X127507023Y-98926289D01*
X127559068Y-98921735D01*
X127564470Y-98921500D01*
X127572704Y-98921500D01*
X127572709Y-98921500D01*
X127604458Y-98917788D01*
X127606075Y-98917622D01*
X127681797Y-98910999D01*
X127681805Y-98910996D01*
X127688866Y-98909539D01*
X127688878Y-98909598D01*
X127696243Y-98907965D01*
X127696229Y-98907906D01*
X127703251Y-98906241D01*
X127703255Y-98906241D01*
X127774587Y-98880277D01*
X127776286Y-98879688D01*
X127848334Y-98855814D01*
X127848342Y-98855808D01*
X127854882Y-98852760D01*
X127854908Y-98852816D01*
X127861690Y-98849532D01*
X127861663Y-98849478D01*
X127868113Y-98846238D01*
X127868117Y-98846237D01*
X127910083Y-98818635D01*
X127966066Y-98798833D01*
X128096132Y-98786024D01*
X128284727Y-98728814D01*
X128458538Y-98635910D01*
X128610883Y-98510883D01*
X128735910Y-98358538D01*
X128828814Y-98184727D01*
X128886024Y-97996132D01*
X128894871Y-97906299D01*
X128921031Y-97841513D01*
X128930584Y-97830782D01*
X132785638Y-93975727D01*
X132799267Y-93963950D01*
X132818530Y-93949610D01*
X132818532Y-93949606D01*
X132818534Y-93949606D01*
X132836663Y-93927999D01*
X132852113Y-93909585D01*
X132855767Y-93905599D01*
X132861591Y-93899776D01*
X132881400Y-93874721D01*
X132882476Y-93873401D01*
X132931302Y-93815214D01*
X132931304Y-93815209D01*
X132935274Y-93809175D01*
X132935325Y-93809208D01*
X132939372Y-93802856D01*
X132939320Y-93802824D01*
X132943111Y-93796677D01*
X132945280Y-93792026D01*
X132975226Y-93727804D01*
X132975952Y-93726305D01*
X133010040Y-93658433D01*
X133010043Y-93658417D01*
X133012509Y-93651646D01*
X133012567Y-93651667D01*
X133015043Y-93644546D01*
X133014986Y-93644527D01*
X133017255Y-93637678D01*
X133017255Y-93637676D01*
X133017257Y-93637673D01*
X133032611Y-93563304D01*
X133033003Y-93561541D01*
X133050501Y-93487716D01*
X133051339Y-93480548D01*
X133051398Y-93480554D01*
X133052164Y-93473054D01*
X133052105Y-93473049D01*
X133052734Y-93465859D01*
X133050526Y-93389967D01*
X133050500Y-93388164D01*
X133050500Y-91728537D01*
X133050500Y-89944481D01*
X133070184Y-89877446D01*
X133122988Y-89831691D01*
X133192146Y-89821747D01*
X133213291Y-89827546D01*
X133213444Y-89827045D01*
X133219269Y-89828812D01*
X133219273Y-89828814D01*
X133407868Y-89886024D01*
X133604000Y-89905341D01*
X133800132Y-89886024D01*
X133988727Y-89828814D01*
X133991100Y-89827546D01*
X134075632Y-89782361D01*
X134162538Y-89735910D01*
X134232312Y-89678647D01*
X134296623Y-89651334D01*
X134310978Y-89650500D01*
X135737770Y-89650500D01*
X135804809Y-89670185D01*
X135825451Y-89686819D01*
X145124267Y-98985634D01*
X145136048Y-98999266D01*
X145150390Y-99018530D01*
X145190420Y-99052119D01*
X145194392Y-99055759D01*
X145197165Y-99058532D01*
X145200220Y-99061588D01*
X145225252Y-99081381D01*
X145226649Y-99082519D01*
X145249815Y-99101957D01*
X145284786Y-99131302D01*
X145284794Y-99131306D01*
X145290824Y-99135273D01*
X145290790Y-99135323D01*
X145297137Y-99139366D01*
X145297169Y-99139316D01*
X145303321Y-99143110D01*
X145303322Y-99143110D01*
X145303323Y-99143111D01*
X145372143Y-99175202D01*
X145373692Y-99175952D01*
X145441567Y-99210040D01*
X145441576Y-99210042D01*
X145448355Y-99212510D01*
X145448334Y-99212567D01*
X145455451Y-99215040D01*
X145455470Y-99214984D01*
X145462324Y-99217254D01*
X145462327Y-99217256D01*
X145536715Y-99232615D01*
X145538352Y-99232978D01*
X145612279Y-99250500D01*
X145612285Y-99250500D01*
X145619452Y-99251338D01*
X145619445Y-99251397D01*
X145626946Y-99252163D01*
X145626952Y-99252104D01*
X145634141Y-99252733D01*
X145634143Y-99252732D01*
X145634144Y-99252733D01*
X145655764Y-99252104D01*
X145710012Y-99250526D01*
X145711815Y-99250500D01*
X146893022Y-99250500D01*
X146960061Y-99270185D01*
X146971687Y-99278647D01*
X147041460Y-99335909D01*
X147041467Y-99335913D01*
X147215266Y-99428811D01*
X147215269Y-99428811D01*
X147215273Y-99428814D01*
X147403868Y-99486024D01*
X147600000Y-99505341D01*
X147796132Y-99486024D01*
X147984727Y-99428814D01*
X148158538Y-99335910D01*
X148310883Y-99210883D01*
X148435910Y-99058538D01*
X148508459Y-98922809D01*
X148528811Y-98884733D01*
X148528811Y-98884732D01*
X148528814Y-98884727D01*
X148586024Y-98696132D01*
X148605341Y-98500000D01*
X148586024Y-98303868D01*
X148528814Y-98115273D01*
X148528811Y-98115269D01*
X148528811Y-98115266D01*
X148435913Y-97941467D01*
X148435909Y-97941460D01*
X148310883Y-97789116D01*
X148158539Y-97664090D01*
X148158532Y-97664086D01*
X147984733Y-97571188D01*
X147984727Y-97571186D01*
X147796132Y-97513976D01*
X147796129Y-97513975D01*
X147600000Y-97494659D01*
X147403870Y-97513975D01*
X147215266Y-97571188D01*
X147041467Y-97664086D01*
X147041460Y-97664090D01*
X146971687Y-97721353D01*
X146907377Y-97748666D01*
X146893022Y-97749500D01*
X146062230Y-97749500D01*
X145995191Y-97729815D01*
X145974549Y-97713181D01*
X143961369Y-95700001D01*
X164074838Y-95700001D01*
X164093450Y-95912741D01*
X164093452Y-95912752D01*
X164148721Y-96119022D01*
X164148723Y-96119026D01*
X164148724Y-96119030D01*
X164191171Y-96210058D01*
X164238977Y-96312578D01*
X164361472Y-96487521D01*
X164512478Y-96638527D01*
X164512481Y-96638529D01*
X164687419Y-96761021D01*
X164687421Y-96761022D01*
X164687420Y-96761022D01*
X164705398Y-96769405D01*
X164880970Y-96851276D01*
X165087253Y-96906549D01*
X165238369Y-96919770D01*
X165299998Y-96925162D01*
X165300000Y-96925162D01*
X165300002Y-96925162D01*
X165353186Y-96920508D01*
X165512747Y-96906549D01*
X165719030Y-96851276D01*
X165912581Y-96761021D01*
X166087519Y-96638529D01*
X166238529Y-96487519D01*
X166361021Y-96312581D01*
X166451276Y-96119030D01*
X166451280Y-96119013D01*
X166453130Y-96113936D01*
X166455253Y-96114709D01*
X166486576Y-96063305D01*
X166549419Y-96032766D01*
X166618796Y-96041050D01*
X166672680Y-96085528D01*
X166685827Y-96114315D01*
X166686870Y-96113936D01*
X166688722Y-96119022D01*
X166688724Y-96119030D01*
X166731171Y-96210058D01*
X166778977Y-96312578D01*
X166901472Y-96487521D01*
X167052478Y-96638527D01*
X167052481Y-96638529D01*
X167227419Y-96761021D01*
X167227421Y-96761022D01*
X167227420Y-96761022D01*
X167245398Y-96769405D01*
X167420970Y-96851276D01*
X167627253Y-96906549D01*
X167778369Y-96919770D01*
X167839998Y-96925162D01*
X167840000Y-96925162D01*
X167840002Y-96925162D01*
X167893186Y-96920508D01*
X168052747Y-96906549D01*
X168259030Y-96851276D01*
X168452581Y-96761021D01*
X168627519Y-96638529D01*
X168778529Y-96487519D01*
X168901021Y-96312581D01*
X168991276Y-96119030D01*
X168991280Y-96119013D01*
X168993130Y-96113936D01*
X168995253Y-96114709D01*
X169026576Y-96063305D01*
X169089419Y-96032766D01*
X169158796Y-96041050D01*
X169212680Y-96085528D01*
X169225827Y-96114315D01*
X169226870Y-96113936D01*
X169228722Y-96119022D01*
X169228724Y-96119030D01*
X169271171Y-96210058D01*
X169318977Y-96312578D01*
X169441472Y-96487521D01*
X169592478Y-96638527D01*
X169592481Y-96638529D01*
X169767419Y-96761021D01*
X169767421Y-96761022D01*
X169767420Y-96761022D01*
X169785398Y-96769405D01*
X169960970Y-96851276D01*
X170167253Y-96906549D01*
X170318369Y-96919770D01*
X170379998Y-96925162D01*
X170380000Y-96925162D01*
X170380002Y-96925162D01*
X170433186Y-96920508D01*
X170592747Y-96906549D01*
X170799030Y-96851276D01*
X170992581Y-96761021D01*
X171167519Y-96638529D01*
X171318529Y-96487519D01*
X171441021Y-96312581D01*
X171531276Y-96119030D01*
X171586549Y-95912747D01*
X171605162Y-95700000D01*
X171586549Y-95487253D01*
X171531276Y-95280970D01*
X171441021Y-95087419D01*
X171318529Y-94912481D01*
X171318527Y-94912478D01*
X171167521Y-94761472D01*
X170992578Y-94638977D01*
X170992579Y-94638977D01*
X170863547Y-94578809D01*
X170799030Y-94548724D01*
X170799026Y-94548723D01*
X170799022Y-94548721D01*
X170592752Y-94493452D01*
X170592748Y-94493451D01*
X170592747Y-94493451D01*
X170592746Y-94493450D01*
X170592741Y-94493450D01*
X170380002Y-94474838D01*
X170379998Y-94474838D01*
X170167258Y-94493450D01*
X170167247Y-94493452D01*
X169960977Y-94548721D01*
X169960968Y-94548725D01*
X169767421Y-94638977D01*
X169592478Y-94761472D01*
X169441472Y-94912478D01*
X169318977Y-95087421D01*
X169228725Y-95280968D01*
X169226870Y-95286064D01*
X169224749Y-95285292D01*
X169193406Y-95336710D01*
X169130558Y-95367237D01*
X169061183Y-95358939D01*
X169007307Y-95314452D01*
X168994169Y-95285685D01*
X168993130Y-95286064D01*
X168991279Y-95280983D01*
X168991276Y-95280970D01*
X168901021Y-95087419D01*
X168778529Y-94912481D01*
X168778527Y-94912478D01*
X168627521Y-94761472D01*
X168452578Y-94638977D01*
X168452579Y-94638977D01*
X168323547Y-94578809D01*
X168259030Y-94548724D01*
X168259026Y-94548723D01*
X168259022Y-94548721D01*
X168052752Y-94493452D01*
X168052748Y-94493451D01*
X168052747Y-94493451D01*
X168052746Y-94493450D01*
X168052741Y-94493450D01*
X167840002Y-94474838D01*
X167839998Y-94474838D01*
X167627258Y-94493450D01*
X167627247Y-94493452D01*
X167420977Y-94548721D01*
X167420968Y-94548725D01*
X167227421Y-94638977D01*
X167052478Y-94761472D01*
X166901472Y-94912478D01*
X166778977Y-95087421D01*
X166688725Y-95280968D01*
X166686870Y-95286064D01*
X166684749Y-95285292D01*
X166653406Y-95336710D01*
X166590558Y-95367237D01*
X166521183Y-95358939D01*
X166467307Y-95314452D01*
X166454169Y-95285685D01*
X166453130Y-95286064D01*
X166451279Y-95280983D01*
X166451276Y-95280970D01*
X166361021Y-95087419D01*
X166238529Y-94912481D01*
X166238527Y-94912478D01*
X166087521Y-94761472D01*
X165912578Y-94638977D01*
X165912579Y-94638977D01*
X165783547Y-94578809D01*
X165719030Y-94548724D01*
X165719026Y-94548723D01*
X165719022Y-94548721D01*
X165512752Y-94493452D01*
X165512748Y-94493451D01*
X165512747Y-94493451D01*
X165512746Y-94493450D01*
X165512741Y-94493450D01*
X165300002Y-94474838D01*
X165299998Y-94474838D01*
X165087258Y-94493450D01*
X165087247Y-94493452D01*
X164880977Y-94548721D01*
X164880968Y-94548725D01*
X164687421Y-94638977D01*
X164512478Y-94761472D01*
X164361472Y-94912478D01*
X164238977Y-95087421D01*
X164148725Y-95280968D01*
X164148721Y-95280977D01*
X164093452Y-95487247D01*
X164093450Y-95487258D01*
X164074838Y-95699998D01*
X164074838Y-95700001D01*
X143961369Y-95700001D01*
X136675729Y-88414361D01*
X136663949Y-88400730D01*
X136656482Y-88390701D01*
X136649612Y-88381472D01*
X136649610Y-88381470D01*
X136609587Y-88347886D01*
X136605612Y-88344244D01*
X136602690Y-88341322D01*
X136599779Y-88338410D01*
X136574736Y-88318609D01*
X136573338Y-88317470D01*
X136515214Y-88268698D01*
X136509180Y-88264729D01*
X136509212Y-88264680D01*
X136502853Y-88260628D01*
X136502822Y-88260679D01*
X136496680Y-88256891D01*
X136496678Y-88256890D01*
X136496677Y-88256889D01*
X136427872Y-88224804D01*
X136426252Y-88224019D01*
X136386512Y-88204061D01*
X136358433Y-88189960D01*
X136358431Y-88189959D01*
X136358430Y-88189959D01*
X136351645Y-88187489D01*
X136351665Y-88187433D01*
X136344549Y-88184959D01*
X136344531Y-88185015D01*
X136337674Y-88182743D01*
X136263328Y-88167391D01*
X136261569Y-88167001D01*
X136187718Y-88149499D01*
X136180547Y-88148661D01*
X136180553Y-88148601D01*
X136173055Y-88147835D01*
X136173050Y-88147895D01*
X136165860Y-88147265D01*
X136089968Y-88149474D01*
X136088165Y-88149500D01*
X134310978Y-88149500D01*
X134243939Y-88129815D01*
X134232313Y-88121353D01*
X134162539Y-88064090D01*
X134162532Y-88064086D01*
X133988733Y-87971188D01*
X133988727Y-87971186D01*
X133859426Y-87931962D01*
X133800990Y-87893666D01*
X133772533Y-87829854D01*
X133783094Y-87760787D01*
X133807740Y-87725625D01*
X135933365Y-85600000D01*
X152094659Y-85600000D01*
X152113975Y-85796129D01*
X152171188Y-85984733D01*
X152264086Y-86158532D01*
X152264090Y-86158539D01*
X152389116Y-86310883D01*
X152541460Y-86435909D01*
X152541467Y-86435913D01*
X152715266Y-86528811D01*
X152715269Y-86528811D01*
X152715273Y-86528814D01*
X152903868Y-86586024D01*
X153100000Y-86605341D01*
X153296132Y-86586024D01*
X153484727Y-86528814D01*
X153658538Y-86435910D01*
X153728312Y-86378647D01*
X153792623Y-86351334D01*
X153806978Y-86350500D01*
X155736295Y-86350500D01*
X155754265Y-86351809D01*
X155778023Y-86355289D01*
X155830068Y-86350735D01*
X155835470Y-86350500D01*
X155843704Y-86350500D01*
X155843709Y-86350500D01*
X155875458Y-86346788D01*
X155877075Y-86346622D01*
X155952797Y-86339999D01*
X155952805Y-86339996D01*
X155959866Y-86338539D01*
X155959878Y-86338598D01*
X155967243Y-86336965D01*
X155967229Y-86336906D01*
X155974251Y-86335241D01*
X155974255Y-86335241D01*
X156045587Y-86309277D01*
X156047286Y-86308688D01*
X156119334Y-86284814D01*
X156119342Y-86284808D01*
X156125882Y-86281760D01*
X156125908Y-86281816D01*
X156132690Y-86278532D01*
X156132663Y-86278478D01*
X156139109Y-86275239D01*
X156139117Y-86275237D01*
X156202612Y-86233475D01*
X156203977Y-86232605D01*
X156268656Y-86192712D01*
X156268661Y-86192706D01*
X156274325Y-86188229D01*
X156274362Y-86188277D01*
X156280204Y-86183518D01*
X156280164Y-86183471D01*
X156285686Y-86178835D01*
X156285696Y-86178830D01*
X156337800Y-86123601D01*
X156338994Y-86122372D01*
X156961366Y-85500000D01*
X164344341Y-85500000D01*
X164364936Y-85735403D01*
X164364938Y-85735413D01*
X164426094Y-85963655D01*
X164426096Y-85963659D01*
X164426097Y-85963663D01*
X164516966Y-86158532D01*
X164525965Y-86177830D01*
X164525967Y-86177834D01*
X164598777Y-86281816D01*
X164661501Y-86371396D01*
X164661506Y-86371402D01*
X164783430Y-86493326D01*
X164816915Y-86554649D01*
X164811931Y-86624341D01*
X164770059Y-86680274D01*
X164739083Y-86697189D01*
X164607669Y-86746203D01*
X164607664Y-86746206D01*
X164492455Y-86832452D01*
X164492452Y-86832455D01*
X164406206Y-86947664D01*
X164406202Y-86947671D01*
X164355908Y-87082517D01*
X164349501Y-87142116D01*
X164349501Y-87142123D01*
X164349500Y-87142135D01*
X164349500Y-88937870D01*
X164349501Y-88937876D01*
X164355908Y-88997483D01*
X164406202Y-89132328D01*
X164406206Y-89132335D01*
X164492452Y-89247544D01*
X164492455Y-89247547D01*
X164607664Y-89333793D01*
X164607671Y-89333797D01*
X164742517Y-89384091D01*
X164742516Y-89384091D01*
X164749444Y-89384835D01*
X164802127Y-89390500D01*
X166597872Y-89390499D01*
X166657483Y-89384091D01*
X166792331Y-89333796D01*
X166907546Y-89247546D01*
X166993796Y-89132331D01*
X167044091Y-88997483D01*
X167050500Y-88937873D01*
X167050499Y-87142128D01*
X167044091Y-87082517D01*
X167013023Y-86999220D01*
X166993797Y-86947671D01*
X166993793Y-86947664D01*
X166907547Y-86832455D01*
X166907544Y-86832452D01*
X166792335Y-86746206D01*
X166792328Y-86746202D01*
X166660917Y-86697189D01*
X166604983Y-86655318D01*
X166580566Y-86589853D01*
X166595418Y-86521580D01*
X166616563Y-86493332D01*
X166738495Y-86371401D01*
X166874035Y-86177830D01*
X166973903Y-85963663D01*
X167035063Y-85735408D01*
X167055659Y-85500000D01*
X167035063Y-85264592D01*
X166973903Y-85036337D01*
X166874035Y-84822171D01*
X166873463Y-84821353D01*
X166738494Y-84628597D01*
X166571402Y-84461506D01*
X166571396Y-84461501D01*
X166385842Y-84331575D01*
X166342217Y-84276998D01*
X166335023Y-84207500D01*
X166366546Y-84145145D01*
X166385842Y-84128425D01*
X166414161Y-84108596D01*
X166571401Y-83998495D01*
X166647026Y-83922870D01*
X168849500Y-83922870D01*
X168849501Y-83922876D01*
X168855908Y-83982483D01*
X168906202Y-84117328D01*
X168906206Y-84117335D01*
X168992452Y-84232544D01*
X168992455Y-84232547D01*
X169107664Y-84318793D01*
X169107671Y-84318797D01*
X169242517Y-84369091D01*
X169242516Y-84369091D01*
X169243763Y-84369225D01*
X169302127Y-84375500D01*
X171097872Y-84375499D01*
X171157483Y-84369091D01*
X171292331Y-84318796D01*
X171407546Y-84232546D01*
X171493796Y-84117331D01*
X171544091Y-83982483D01*
X171550500Y-83922873D01*
X171550499Y-82127128D01*
X171544091Y-82067517D01*
X171537084Y-82048731D01*
X171493797Y-81932671D01*
X171493793Y-81932664D01*
X171407547Y-81817455D01*
X171407544Y-81817452D01*
X171292335Y-81731206D01*
X171292328Y-81731202D01*
X171157482Y-81680908D01*
X171157483Y-81680908D01*
X171097883Y-81674501D01*
X171097881Y-81674500D01*
X171097873Y-81674500D01*
X171097864Y-81674500D01*
X169302129Y-81674500D01*
X169302123Y-81674501D01*
X169242516Y-81680908D01*
X169107671Y-81731202D01*
X169107664Y-81731206D01*
X168992455Y-81817452D01*
X168992452Y-81817455D01*
X168906206Y-81932664D01*
X168906202Y-81932671D01*
X168855908Y-82067517D01*
X168849905Y-82123357D01*
X168849501Y-82127123D01*
X168849500Y-82127135D01*
X168849500Y-83922870D01*
X166647026Y-83922870D01*
X166738495Y-83831401D01*
X166874035Y-83637830D01*
X166973903Y-83423663D01*
X167035063Y-83195408D01*
X167055659Y-82960000D01*
X167035063Y-82724592D01*
X166973903Y-82496337D01*
X166874035Y-82282171D01*
X166782470Y-82151401D01*
X166738494Y-82088597D01*
X166571402Y-81921506D01*
X166571395Y-81921501D01*
X166377834Y-81785967D01*
X166377830Y-81785965D01*
X166260399Y-81731206D01*
X166163663Y-81686097D01*
X166163659Y-81686096D01*
X166163655Y-81686094D01*
X165935413Y-81624938D01*
X165935403Y-81624936D01*
X165700001Y-81604341D01*
X165699999Y-81604341D01*
X165464596Y-81624936D01*
X165464586Y-81624938D01*
X165236344Y-81686094D01*
X165236335Y-81686098D01*
X165022171Y-81785964D01*
X165022169Y-81785965D01*
X164828597Y-81921505D01*
X164661505Y-82088597D01*
X164525965Y-82282169D01*
X164525964Y-82282171D01*
X164426098Y-82496335D01*
X164426094Y-82496344D01*
X164364938Y-82724586D01*
X164364936Y-82724596D01*
X164344341Y-82959999D01*
X164344341Y-82960000D01*
X164364936Y-83195403D01*
X164364938Y-83195413D01*
X164426094Y-83423655D01*
X164426096Y-83423659D01*
X164426097Y-83423663D01*
X164515313Y-83614986D01*
X164525965Y-83637830D01*
X164525967Y-83637834D01*
X164661501Y-83831395D01*
X164661506Y-83831402D01*
X164828597Y-83998493D01*
X164828603Y-83998498D01*
X165014158Y-84128425D01*
X165057783Y-84183002D01*
X165064977Y-84252500D01*
X165033454Y-84314855D01*
X165014158Y-84331575D01*
X164828597Y-84461505D01*
X164661505Y-84628597D01*
X164525965Y-84822169D01*
X164525964Y-84822171D01*
X164426098Y-85036335D01*
X164426094Y-85036344D01*
X164364938Y-85264586D01*
X164364936Y-85264596D01*
X164344341Y-85499999D01*
X164344341Y-85500000D01*
X156961366Y-85500000D01*
X157030775Y-85430591D01*
X157092096Y-85397108D01*
X157106295Y-85394871D01*
X157196132Y-85386024D01*
X157384727Y-85328814D01*
X157558538Y-85235910D01*
X157710883Y-85110883D01*
X157835910Y-84958538D01*
X157928814Y-84784727D01*
X157986024Y-84596132D01*
X158005341Y-84400000D01*
X157986024Y-84203868D01*
X157928814Y-84015273D01*
X157928811Y-84015269D01*
X157928811Y-84015266D01*
X157835913Y-83841467D01*
X157835909Y-83841460D01*
X157710883Y-83689116D01*
X157558539Y-83564090D01*
X157558532Y-83564086D01*
X157384733Y-83471188D01*
X157384727Y-83471186D01*
X157223698Y-83422338D01*
X157196129Y-83413975D01*
X157000000Y-83394659D01*
X156803870Y-83413975D01*
X156615266Y-83471188D01*
X156441467Y-83564086D01*
X156441460Y-83564090D01*
X156289116Y-83689116D01*
X156164090Y-83841460D01*
X156164086Y-83841467D01*
X156071188Y-84015266D01*
X156013975Y-84203870D01*
X156005127Y-84293700D01*
X155978965Y-84358487D01*
X155969405Y-84369225D01*
X155525451Y-84813181D01*
X155464128Y-84846666D01*
X155437770Y-84849500D01*
X153806978Y-84849500D01*
X153739939Y-84829815D01*
X153728313Y-84821353D01*
X153658539Y-84764090D01*
X153658532Y-84764086D01*
X153484733Y-84671188D01*
X153484727Y-84671186D01*
X153296132Y-84613976D01*
X153296129Y-84613975D01*
X153100000Y-84594659D01*
X152903870Y-84613975D01*
X152715266Y-84671188D01*
X152541467Y-84764086D01*
X152541460Y-84764090D01*
X152389116Y-84889116D01*
X152264090Y-85041460D01*
X152264086Y-85041467D01*
X152171188Y-85215266D01*
X152113975Y-85403870D01*
X152094659Y-85600000D01*
X135933365Y-85600000D01*
X137010638Y-84522727D01*
X137024267Y-84510950D01*
X137043530Y-84496610D01*
X137043532Y-84496606D01*
X137043534Y-84496606D01*
X137072989Y-84461501D01*
X137077113Y-84456585D01*
X137080767Y-84452599D01*
X137086590Y-84446777D01*
X137106376Y-84421750D01*
X137107494Y-84420378D01*
X137156302Y-84362214D01*
X137156303Y-84362211D01*
X137160272Y-84356179D01*
X137160323Y-84356212D01*
X137164369Y-84349860D01*
X137164317Y-84349828D01*
X137168109Y-84343679D01*
X137168111Y-84343677D01*
X137200195Y-84274869D01*
X137200958Y-84273292D01*
X137235040Y-84205433D01*
X137235043Y-84205417D01*
X137237510Y-84198644D01*
X137237568Y-84198665D01*
X137240043Y-84191546D01*
X137239985Y-84191527D01*
X137242255Y-84184677D01*
X137252711Y-84134035D01*
X137257608Y-84110319D01*
X137257990Y-84108596D01*
X137275501Y-84034716D01*
X137276339Y-84027548D01*
X137276397Y-84027554D01*
X137277164Y-84020056D01*
X137277104Y-84020051D01*
X137277733Y-84012860D01*
X137275526Y-83936988D01*
X137275500Y-83935185D01*
X137275500Y-82737229D01*
X137295185Y-82670190D01*
X137311819Y-82649548D01*
X137861367Y-82100000D01*
X142594659Y-82100000D01*
X142613975Y-82296129D01*
X142671188Y-82484733D01*
X142764086Y-82658532D01*
X142764090Y-82658539D01*
X142889116Y-82810883D01*
X143041460Y-82935909D01*
X143041467Y-82935913D01*
X143215266Y-83028811D01*
X143215269Y-83028811D01*
X143215273Y-83028814D01*
X143403868Y-83086024D01*
X143493697Y-83094871D01*
X143558485Y-83121031D01*
X143569225Y-83130593D01*
X143824270Y-83385638D01*
X143836051Y-83399270D01*
X143850388Y-83418528D01*
X143850389Y-83418529D01*
X143850390Y-83418530D01*
X143859472Y-83426150D01*
X143890409Y-83452111D01*
X143894397Y-83455766D01*
X143900217Y-83461586D01*
X143900222Y-83461590D01*
X143900223Y-83461591D01*
X143925263Y-83481390D01*
X143926644Y-83482515D01*
X143928680Y-83484223D01*
X143984786Y-83531302D01*
X143984787Y-83531302D01*
X143984789Y-83531304D01*
X143990818Y-83535270D01*
X143990785Y-83535319D01*
X143997147Y-83539372D01*
X143997179Y-83539321D01*
X144003319Y-83543108D01*
X144003323Y-83543111D01*
X144058383Y-83568786D01*
X144072101Y-83575183D01*
X144073723Y-83575968D01*
X144085256Y-83581760D01*
X144141567Y-83610040D01*
X144141569Y-83610040D01*
X144148357Y-83612511D01*
X144148336Y-83612567D01*
X144155457Y-83615043D01*
X144155476Y-83614986D01*
X144162319Y-83617253D01*
X144162327Y-83617257D01*
X144236748Y-83632623D01*
X144238371Y-83632983D01*
X144312279Y-83650500D01*
X144312280Y-83650500D01*
X144312284Y-83650501D01*
X144319453Y-83651339D01*
X144319446Y-83651398D01*
X144326944Y-83652164D01*
X144326950Y-83652105D01*
X144334139Y-83652734D01*
X144334143Y-83652733D01*
X144334144Y-83652734D01*
X144362229Y-83651916D01*
X144410032Y-83650526D01*
X144411835Y-83650500D01*
X151636295Y-83650500D01*
X151654265Y-83651809D01*
X151678023Y-83655289D01*
X151730068Y-83650735D01*
X151735470Y-83650500D01*
X151743704Y-83650500D01*
X151743709Y-83650500D01*
X151775458Y-83646788D01*
X151777075Y-83646622D01*
X151852797Y-83639999D01*
X151852805Y-83639996D01*
X151859866Y-83638539D01*
X151859878Y-83638598D01*
X151867243Y-83636965D01*
X151867229Y-83636906D01*
X151874251Y-83635241D01*
X151874255Y-83635241D01*
X151945587Y-83609277D01*
X151947286Y-83608688D01*
X152019334Y-83584814D01*
X152019342Y-83584808D01*
X152025882Y-83581760D01*
X152025908Y-83581816D01*
X152032690Y-83578532D01*
X152032663Y-83578478D01*
X152039109Y-83575239D01*
X152039117Y-83575237D01*
X152102612Y-83533475D01*
X152103977Y-83532605D01*
X152168656Y-83492712D01*
X152168661Y-83492706D01*
X152174325Y-83488229D01*
X152174362Y-83488277D01*
X152180204Y-83483518D01*
X152180164Y-83483471D01*
X152185686Y-83478835D01*
X152185696Y-83478830D01*
X152237800Y-83423601D01*
X152238994Y-83422372D01*
X154381365Y-81280000D01*
X184064341Y-81280000D01*
X184084936Y-81515403D01*
X184084938Y-81515413D01*
X184146094Y-81743655D01*
X184146096Y-81743659D01*
X184146097Y-81743663D01*
X184229026Y-81921505D01*
X184245965Y-81957830D01*
X184245967Y-81957834D01*
X184345514Y-82100000D01*
X184381505Y-82151401D01*
X184548599Y-82318495D01*
X184643621Y-82385030D01*
X184742165Y-82454032D01*
X184742167Y-82454033D01*
X184742170Y-82454035D01*
X184956337Y-82553903D01*
X185184592Y-82615063D01*
X185372918Y-82631539D01*
X185419999Y-82635659D01*
X185420000Y-82635659D01*
X185420001Y-82635659D01*
X185459234Y-82632226D01*
X185655408Y-82615063D01*
X185883663Y-82553903D01*
X186097830Y-82454035D01*
X186291401Y-82318495D01*
X186458495Y-82151401D01*
X186594035Y-81957830D01*
X186693903Y-81743663D01*
X186755063Y-81515408D01*
X186775659Y-81280000D01*
X186755063Y-81044592D01*
X186693903Y-80816337D01*
X186594035Y-80602171D01*
X186541601Y-80527286D01*
X186458494Y-80408597D01*
X186291402Y-80241506D01*
X186291395Y-80241501D01*
X186097834Y-80105967D01*
X186097830Y-80105965D01*
X186052285Y-80084727D01*
X185883663Y-80006097D01*
X185883659Y-80006096D01*
X185883655Y-80006094D01*
X185655413Y-79944938D01*
X185655403Y-79944936D01*
X185420001Y-79924341D01*
X185419999Y-79924341D01*
X185184596Y-79944936D01*
X185184586Y-79944938D01*
X184956344Y-80006094D01*
X184956335Y-80006098D01*
X184742171Y-80105964D01*
X184742169Y-80105965D01*
X184548597Y-80241505D01*
X184381505Y-80408597D01*
X184245965Y-80602169D01*
X184245964Y-80602171D01*
X184146098Y-80816335D01*
X184146094Y-80816344D01*
X184084938Y-81044586D01*
X184084936Y-81044596D01*
X184064341Y-81279999D01*
X184064341Y-81280000D01*
X154381365Y-81280000D01*
X154930774Y-80730591D01*
X154992095Y-80697108D01*
X155006293Y-80694871D01*
X155096132Y-80686024D01*
X155284727Y-80628814D01*
X155317582Y-80611253D01*
X155371632Y-80582362D01*
X155458538Y-80535910D01*
X155610883Y-80410883D01*
X155735910Y-80258538D01*
X155828814Y-80084727D01*
X155886024Y-79896132D01*
X155905341Y-79700000D01*
X155886024Y-79503868D01*
X155828814Y-79315273D01*
X155828811Y-79315269D01*
X155828811Y-79315266D01*
X155735913Y-79141467D01*
X155735909Y-79141460D01*
X155610883Y-78989116D01*
X155458539Y-78864090D01*
X155458532Y-78864086D01*
X155284733Y-78771188D01*
X155284727Y-78771186D01*
X155096132Y-78713976D01*
X155096129Y-78713975D01*
X154900000Y-78694659D01*
X154703870Y-78713975D01*
X154515266Y-78771188D01*
X154341467Y-78864086D01*
X154341460Y-78864090D01*
X154189116Y-78989116D01*
X154064090Y-79141460D01*
X154064086Y-79141467D01*
X153971188Y-79315266D01*
X153913975Y-79503870D01*
X153905127Y-79593700D01*
X153878965Y-79658487D01*
X153869405Y-79669225D01*
X151425451Y-82113181D01*
X151364128Y-82146666D01*
X151337770Y-82149500D01*
X144762230Y-82149500D01*
X144695191Y-82129815D01*
X144674548Y-82113180D01*
X144630592Y-82069223D01*
X144597107Y-82007900D01*
X144594871Y-81993697D01*
X144592503Y-81969658D01*
X144586024Y-81903868D01*
X144528814Y-81715273D01*
X144528811Y-81715269D01*
X144528811Y-81715266D01*
X144435913Y-81541467D01*
X144435909Y-81541460D01*
X144310883Y-81389116D01*
X144158539Y-81264090D01*
X144158532Y-81264086D01*
X143984733Y-81171188D01*
X143984727Y-81171186D01*
X143796132Y-81113976D01*
X143796129Y-81113975D01*
X143600000Y-81094659D01*
X143403870Y-81113975D01*
X143215266Y-81171188D01*
X143041467Y-81264086D01*
X143041460Y-81264090D01*
X142889116Y-81389116D01*
X142764090Y-81541460D01*
X142764086Y-81541467D01*
X142671188Y-81715266D01*
X142613975Y-81903870D01*
X142594659Y-82100000D01*
X137861367Y-82100000D01*
X137967670Y-81993697D01*
X138630775Y-81330591D01*
X138692096Y-81297108D01*
X138706295Y-81294871D01*
X138796132Y-81286024D01*
X138984727Y-81228814D01*
X139158538Y-81135910D01*
X139310883Y-81010883D01*
X139435910Y-80858538D01*
X139518984Y-80703117D01*
X139528811Y-80684733D01*
X139528811Y-80684732D01*
X139528814Y-80684727D01*
X139586024Y-80496132D01*
X139594871Y-80406299D01*
X139621031Y-80341513D01*
X139630584Y-80330782D01*
X142686548Y-77274818D01*
X142747871Y-77241334D01*
X142774229Y-77238500D01*
X144724295Y-77238500D01*
X144742265Y-77239809D01*
X144766023Y-77243289D01*
X144818068Y-77238735D01*
X144823470Y-77238500D01*
X144831704Y-77238500D01*
X144831709Y-77238500D01*
X144863458Y-77234788D01*
X144865075Y-77234622D01*
X144940797Y-77227999D01*
X144940805Y-77227996D01*
X144947866Y-77226539D01*
X144947878Y-77226598D01*
X144955243Y-77224965D01*
X144955229Y-77224906D01*
X144962251Y-77223241D01*
X144962255Y-77223241D01*
X145033587Y-77197277D01*
X145035286Y-77196688D01*
X145107334Y-77172814D01*
X145107342Y-77172808D01*
X145113882Y-77169760D01*
X145113908Y-77169816D01*
X145120690Y-77166532D01*
X145120663Y-77166478D01*
X145127109Y-77163239D01*
X145127117Y-77163237D01*
X145190612Y-77121475D01*
X145191977Y-77120605D01*
X145228838Y-77097870D01*
X184069500Y-77097870D01*
X184069501Y-77097876D01*
X184075908Y-77157483D01*
X184126202Y-77292328D01*
X184126206Y-77292335D01*
X184212452Y-77407544D01*
X184212455Y-77407547D01*
X184327664Y-77493793D01*
X184327671Y-77493797D01*
X184462517Y-77544091D01*
X184462516Y-77544091D01*
X184469444Y-77544835D01*
X184522127Y-77550500D01*
X186317872Y-77550499D01*
X186377483Y-77544091D01*
X186512331Y-77493796D01*
X186627546Y-77407546D01*
X186713796Y-77292331D01*
X186764091Y-77157483D01*
X186770500Y-77097873D01*
X186770499Y-75302128D01*
X186764091Y-75242517D01*
X186757976Y-75226123D01*
X186713797Y-75107671D01*
X186713793Y-75107664D01*
X186627547Y-74992455D01*
X186627544Y-74992452D01*
X186512335Y-74906206D01*
X186512328Y-74906202D01*
X186377482Y-74855908D01*
X186377483Y-74855908D01*
X186317883Y-74849501D01*
X186317881Y-74849500D01*
X186317873Y-74849500D01*
X186317864Y-74849500D01*
X184522129Y-74849500D01*
X184522123Y-74849501D01*
X184462516Y-74855908D01*
X184327671Y-74906202D01*
X184327664Y-74906206D01*
X184212455Y-74992452D01*
X184212452Y-74992455D01*
X184126206Y-75107664D01*
X184126202Y-75107671D01*
X184075908Y-75242517D01*
X184069782Y-75299500D01*
X184069501Y-75302123D01*
X184069500Y-75302135D01*
X184069500Y-77097870D01*
X145228838Y-77097870D01*
X145256656Y-77080712D01*
X145256661Y-77080706D01*
X145262325Y-77076229D01*
X145262363Y-77076277D01*
X145268200Y-77071522D01*
X145268161Y-77071475D01*
X145273691Y-77066833D01*
X145273696Y-77066830D01*
X145325799Y-77011602D01*
X145326993Y-77010374D01*
X147730775Y-74606591D01*
X147792096Y-74573108D01*
X147806295Y-74570871D01*
X147896132Y-74562024D01*
X148084727Y-74504814D01*
X148258538Y-74411910D01*
X148410883Y-74286883D01*
X148535910Y-74134538D01*
X148626248Y-73965528D01*
X148628811Y-73960733D01*
X148628811Y-73960732D01*
X148628814Y-73960727D01*
X148686024Y-73772132D01*
X148705341Y-73576000D01*
X148686024Y-73379868D01*
X148628814Y-73191273D01*
X148628811Y-73191269D01*
X148628811Y-73191266D01*
X148535913Y-73017467D01*
X148535909Y-73017460D01*
X148410883Y-72865116D01*
X148258539Y-72740090D01*
X148258532Y-72740086D01*
X148084733Y-72647188D01*
X148084727Y-72647186D01*
X147896132Y-72589976D01*
X147896129Y-72589975D01*
X147700000Y-72570659D01*
X147503870Y-72589975D01*
X147315266Y-72647188D01*
X147141467Y-72740086D01*
X147141460Y-72740090D01*
X146989116Y-72865116D01*
X146864090Y-73017460D01*
X146864086Y-73017467D01*
X146771188Y-73191266D01*
X146713975Y-73379870D01*
X146705127Y-73469700D01*
X146678965Y-73534487D01*
X146669405Y-73545225D01*
X145021992Y-75192638D01*
X144960669Y-75226123D01*
X144890977Y-75221139D01*
X144835044Y-75179267D01*
X144810908Y-75117111D01*
X144810726Y-75115266D01*
X144798524Y-74991368D01*
X144741314Y-74802773D01*
X144741311Y-74802769D01*
X144741311Y-74802766D01*
X144648413Y-74628967D01*
X144648411Y-74628965D01*
X144648410Y-74628962D01*
X144630052Y-74606593D01*
X144591147Y-74559186D01*
X144563834Y-74494876D01*
X144563000Y-74480521D01*
X144563000Y-71357703D01*
X144582685Y-71290664D01*
X144635489Y-71244909D01*
X144650997Y-71239045D01*
X144684727Y-71228814D01*
X144858538Y-71135910D01*
X145010883Y-71010883D01*
X145135910Y-70858538D01*
X145182362Y-70771632D01*
X145228811Y-70684733D01*
X145228811Y-70684732D01*
X145228814Y-70684727D01*
X145286024Y-70496132D01*
X145305341Y-70300000D01*
X145286024Y-70103868D01*
X145228814Y-69915273D01*
X145228811Y-69915269D01*
X145228811Y-69915266D01*
X145135913Y-69741467D01*
X145135909Y-69741460D01*
X145010883Y-69589116D01*
X144858539Y-69464090D01*
X144858532Y-69464086D01*
X144684733Y-69371188D01*
X144684727Y-69371186D01*
X144496132Y-69313976D01*
X144496129Y-69313975D01*
X144300000Y-69294659D01*
X144103870Y-69313975D01*
X143915266Y-69371188D01*
X143741467Y-69464086D01*
X143741460Y-69464090D01*
X143589116Y-69589116D01*
X143464090Y-69741460D01*
X143464086Y-69741467D01*
X143371188Y-69915266D01*
X143313975Y-70103870D01*
X143305439Y-70190532D01*
X143279277Y-70255319D01*
X143277027Y-70258080D01*
X143260399Y-70277897D01*
X143256750Y-70281880D01*
X143250906Y-70287725D01*
X143231118Y-70312751D01*
X143229981Y-70314147D01*
X143181194Y-70372290D01*
X143177229Y-70378319D01*
X143177182Y-70378288D01*
X143173130Y-70384647D01*
X143173179Y-70384677D01*
X143169389Y-70390821D01*
X143137312Y-70459610D01*
X143136527Y-70461231D01*
X143102457Y-70529072D01*
X143099988Y-70535857D01*
X143099932Y-70535836D01*
X143097460Y-70542950D01*
X143097515Y-70542969D01*
X143095243Y-70549825D01*
X143079891Y-70624170D01*
X143079501Y-70625928D01*
X143061999Y-70699779D01*
X143061161Y-70706954D01*
X143061101Y-70706947D01*
X143060335Y-70714445D01*
X143060395Y-70714451D01*
X143059765Y-70721640D01*
X143061974Y-70797530D01*
X143062000Y-70799333D01*
X143062000Y-73674500D01*
X143042315Y-73741539D01*
X142989511Y-73787294D01*
X142938000Y-73798500D01*
X140398705Y-73798500D01*
X140380735Y-73797191D01*
X140356972Y-73793710D01*
X140311533Y-73797686D01*
X140304931Y-73798264D01*
X140299530Y-73798500D01*
X140291283Y-73798500D01*
X140259606Y-73802202D01*
X140257832Y-73802384D01*
X140227390Y-73805047D01*
X140182198Y-73809001D01*
X140175132Y-73810460D01*
X140175120Y-73810404D01*
X140167763Y-73812035D01*
X140167777Y-73812092D01*
X140160740Y-73813760D01*
X140089385Y-73839729D01*
X140087685Y-73840320D01*
X140015668Y-73864185D01*
X140009126Y-73867236D01*
X140009101Y-73867183D01*
X140002308Y-73870471D01*
X140002334Y-73870523D01*
X139995880Y-73873764D01*
X139932468Y-73915470D01*
X139930948Y-73916439D01*
X139866348Y-73956285D01*
X139860683Y-73960765D01*
X139860647Y-73960719D01*
X139854798Y-73965484D01*
X139854835Y-73965528D01*
X139849309Y-73970164D01*
X139797212Y-74025382D01*
X139795956Y-74026675D01*
X130414358Y-83408272D01*
X130400729Y-83420051D01*
X130381468Y-83434390D01*
X130347898Y-83474397D01*
X130344253Y-83478376D01*
X130338407Y-83484223D01*
X130318618Y-83509251D01*
X130317481Y-83510647D01*
X130268694Y-83568790D01*
X130264729Y-83574819D01*
X130264682Y-83574788D01*
X130260630Y-83581147D01*
X130260679Y-83581177D01*
X130256889Y-83587321D01*
X130224812Y-83656110D01*
X130224027Y-83657731D01*
X130189957Y-83725572D01*
X130187488Y-83732357D01*
X130187432Y-83732336D01*
X130184960Y-83739450D01*
X130185015Y-83739469D01*
X130182743Y-83746325D01*
X130167391Y-83820670D01*
X130167001Y-83822428D01*
X130149499Y-83896279D01*
X130148661Y-83903454D01*
X130148601Y-83903447D01*
X130147835Y-83910945D01*
X130147895Y-83910951D01*
X130147265Y-83918141D01*
X130149473Y-83994031D01*
X130149499Y-83995833D01*
X130149500Y-85293021D01*
X130129815Y-85360060D01*
X130121353Y-85371686D01*
X130064091Y-85441460D01*
X130064086Y-85441467D01*
X129971188Y-85615266D01*
X129913975Y-85803870D01*
X129905127Y-85893699D01*
X129878965Y-85958486D01*
X129869407Y-85969222D01*
X129825452Y-86013179D01*
X129764130Y-86046666D01*
X129737769Y-86049500D01*
X127562229Y-86049500D01*
X127495190Y-86029815D01*
X127474548Y-86013181D01*
X125496088Y-84034721D01*
X123499777Y-82038409D01*
X123499776Y-82038408D01*
X123498531Y-82037163D01*
X123498512Y-82037145D01*
X121930593Y-80469225D01*
X121897108Y-80407902D01*
X121894871Y-80393697D01*
X121889782Y-80342023D01*
X121886024Y-80303868D01*
X121828814Y-80115273D01*
X121828811Y-80115269D01*
X121828811Y-80115266D01*
X121735913Y-79941467D01*
X121735911Y-79941465D01*
X121735910Y-79941462D01*
X121714417Y-79915273D01*
X121678647Y-79871686D01*
X121651334Y-79807376D01*
X121650500Y-79793021D01*
X121650500Y-75572227D01*
X121650500Y-71313191D01*
X121651808Y-71295238D01*
X121655289Y-71271477D01*
X121650735Y-71219433D01*
X121650500Y-71214032D01*
X121650500Y-71205796D01*
X121650500Y-71205791D01*
X121646785Y-71174013D01*
X121646621Y-71172411D01*
X121643975Y-71142162D01*
X121644100Y-71119202D01*
X121655841Y-71000000D01*
X121636524Y-70803868D01*
X121635351Y-70800000D01*
X122194659Y-70800000D01*
X122213975Y-70996129D01*
X122213976Y-70996132D01*
X122256377Y-71135910D01*
X122271188Y-71184733D01*
X122364084Y-71358529D01*
X122364087Y-71358533D01*
X122364090Y-71358538D01*
X122421354Y-71428314D01*
X122448666Y-71492620D01*
X122449500Y-71506976D01*
X122449499Y-74936294D01*
X122448191Y-74954259D01*
X122444710Y-74978026D01*
X122449264Y-75030064D01*
X122449500Y-75035470D01*
X122449500Y-75043712D01*
X122453202Y-75075391D01*
X122453386Y-75077185D01*
X122460000Y-75152792D01*
X122461461Y-75159867D01*
X122461403Y-75159878D01*
X122463034Y-75167237D01*
X122463092Y-75167224D01*
X122464757Y-75174249D01*
X122464758Y-75174254D01*
X122464759Y-75174255D01*
X122489603Y-75242517D01*
X122490708Y-75245551D01*
X122491299Y-75247253D01*
X122515182Y-75319326D01*
X122518236Y-75325874D01*
X122518182Y-75325898D01*
X122521470Y-75332688D01*
X122521521Y-75332663D01*
X122524761Y-75339113D01*
X122524762Y-75339114D01*
X122524763Y-75339117D01*
X122566494Y-75402567D01*
X122567443Y-75404058D01*
X122607289Y-75468657D01*
X122611766Y-75474319D01*
X122611719Y-75474356D01*
X122616482Y-75480202D01*
X122616528Y-75480164D01*
X122621173Y-75485699D01*
X122676363Y-75537768D01*
X122677657Y-75539025D01*
X124824270Y-77685638D01*
X124836051Y-77699270D01*
X124850388Y-77718528D01*
X124890409Y-77752111D01*
X124894397Y-77755766D01*
X124900217Y-77761586D01*
X124900222Y-77761590D01*
X124900223Y-77761591D01*
X124925263Y-77781390D01*
X124926644Y-77782515D01*
X124984786Y-77831302D01*
X124984787Y-77831302D01*
X124984789Y-77831304D01*
X124990818Y-77835270D01*
X124990785Y-77835319D01*
X124997147Y-77839372D01*
X124997179Y-77839321D01*
X125003319Y-77843108D01*
X125003323Y-77843111D01*
X125041278Y-77860809D01*
X125072137Y-77875200D01*
X125073760Y-77875986D01*
X125141562Y-77910038D01*
X125148357Y-77912511D01*
X125148336Y-77912567D01*
X125155457Y-77915043D01*
X125155476Y-77914986D01*
X125162319Y-77917253D01*
X125162327Y-77917257D01*
X125236748Y-77932623D01*
X125238371Y-77932983D01*
X125312279Y-77950500D01*
X125312280Y-77950500D01*
X125312284Y-77950501D01*
X125319453Y-77951339D01*
X125319446Y-77951398D01*
X125326944Y-77952164D01*
X125326950Y-77952105D01*
X125334139Y-77952734D01*
X125334143Y-77952733D01*
X125334144Y-77952734D01*
X125362229Y-77951916D01*
X125410032Y-77950526D01*
X125411835Y-77950500D01*
X125593022Y-77950500D01*
X125660061Y-77970185D01*
X125671687Y-77978647D01*
X125741460Y-78035909D01*
X125741467Y-78035913D01*
X125915266Y-78128811D01*
X125915269Y-78128811D01*
X125915273Y-78128814D01*
X126103868Y-78186024D01*
X126300000Y-78205341D01*
X126496132Y-78186024D01*
X126684727Y-78128814D01*
X126858538Y-78035910D01*
X127010883Y-77910883D01*
X127135910Y-77758538D01*
X127228814Y-77584727D01*
X127286024Y-77396132D01*
X127305341Y-77200000D01*
X127286024Y-77003868D01*
X127228814Y-76815273D01*
X127228811Y-76815269D01*
X127228811Y-76815266D01*
X127135913Y-76641467D01*
X127135909Y-76641460D01*
X127010883Y-76489116D01*
X126858539Y-76364090D01*
X126858532Y-76364086D01*
X126684733Y-76271188D01*
X126684727Y-76271186D01*
X126496132Y-76213976D01*
X126496129Y-76213975D01*
X126300000Y-76194659D01*
X126103870Y-76213975D01*
X125915266Y-76271188D01*
X125746969Y-76361145D01*
X125678566Y-76375387D01*
X125613322Y-76350387D01*
X125600835Y-76339468D01*
X124800392Y-75539025D01*
X123986819Y-74725451D01*
X123953334Y-74664128D01*
X123950500Y-74637770D01*
X123950500Y-71506976D01*
X123970185Y-71439937D01*
X123978632Y-71428329D01*
X124035910Y-71358538D01*
X124035915Y-71358529D01*
X124128811Y-71184733D01*
X124128811Y-71184732D01*
X124128814Y-71184727D01*
X124186024Y-70996132D01*
X124205341Y-70800000D01*
X124186024Y-70603868D01*
X124128814Y-70415273D01*
X124128811Y-70415269D01*
X124128811Y-70415266D01*
X124035913Y-70241467D01*
X124035909Y-70241460D01*
X123910883Y-70089116D01*
X123758539Y-69964090D01*
X123758532Y-69964086D01*
X123584733Y-69871188D01*
X123584727Y-69871186D01*
X123396132Y-69813976D01*
X123396129Y-69813975D01*
X123200000Y-69794659D01*
X123003870Y-69813975D01*
X122815266Y-69871188D01*
X122641467Y-69964086D01*
X122641460Y-69964090D01*
X122489116Y-70089116D01*
X122364090Y-70241460D01*
X122364086Y-70241467D01*
X122271188Y-70415266D01*
X122213975Y-70603870D01*
X122194659Y-70800000D01*
X121635351Y-70800000D01*
X121579314Y-70615273D01*
X121579311Y-70615269D01*
X121579311Y-70615266D01*
X121486413Y-70441467D01*
X121486409Y-70441460D01*
X121361383Y-70289116D01*
X121209039Y-70164090D01*
X121209032Y-70164086D01*
X121035233Y-70071188D01*
X121035227Y-70071186D01*
X120846632Y-70013976D01*
X120846629Y-70013975D01*
X120650500Y-69994659D01*
X120454370Y-70013975D01*
X120265766Y-70071188D01*
X120091967Y-70164086D01*
X120091960Y-70164090D01*
X119939616Y-70289116D01*
X119814590Y-70441460D01*
X119814586Y-70441467D01*
X119721688Y-70615266D01*
X119664475Y-70803870D01*
X119645159Y-71000000D01*
X119664475Y-71196129D01*
X119669906Y-71214032D01*
X119697249Y-71304171D01*
X119721688Y-71384733D01*
X119814586Y-71558532D01*
X119814590Y-71558539D01*
X119939616Y-71710883D01*
X120091962Y-71835911D01*
X120094393Y-71837535D01*
X120095378Y-71838714D01*
X120096671Y-71839775D01*
X120096469Y-71840020D01*
X120139196Y-71891149D01*
X120149499Y-71940635D01*
X120149500Y-79793021D01*
X120129815Y-79860060D01*
X120121353Y-79871686D01*
X120064091Y-79941460D01*
X120064086Y-79941467D01*
X119971188Y-80115266D01*
X119913975Y-80303870D01*
X119894659Y-80500000D01*
X119913975Y-80696129D01*
X119913976Y-80696132D01*
X119960559Y-80849696D01*
X119971188Y-80884733D01*
X120064086Y-81058532D01*
X120064090Y-81058539D01*
X120189116Y-81210883D01*
X120341460Y-81335909D01*
X120341467Y-81335913D01*
X120515266Y-81428811D01*
X120515269Y-81428811D01*
X120515273Y-81428814D01*
X120703868Y-81486024D01*
X120793697Y-81494871D01*
X120858485Y-81521031D01*
X120869225Y-81530593D01*
X122404945Y-83066312D01*
X122404966Y-83066335D01*
X126624270Y-87285638D01*
X126636051Y-87299270D01*
X126650388Y-87318528D01*
X126650389Y-87318529D01*
X126650390Y-87318530D01*
X126655696Y-87322982D01*
X126690409Y-87352111D01*
X126694397Y-87355766D01*
X126700217Y-87361586D01*
X126700222Y-87361590D01*
X126700223Y-87361591D01*
X126725263Y-87381390D01*
X126726644Y-87382515D01*
X126784786Y-87431302D01*
X126784787Y-87431302D01*
X126784789Y-87431304D01*
X126790818Y-87435270D01*
X126790785Y-87435319D01*
X126797147Y-87439372D01*
X126797179Y-87439321D01*
X126803319Y-87443108D01*
X126803323Y-87443111D01*
X126841278Y-87460809D01*
X126872137Y-87475200D01*
X126873760Y-87475986D01*
X126941562Y-87510038D01*
X126948357Y-87512511D01*
X126948336Y-87512567D01*
X126955457Y-87515043D01*
X126955476Y-87514986D01*
X126962319Y-87517253D01*
X126962327Y-87517257D01*
X127036748Y-87532623D01*
X127038371Y-87532983D01*
X127112279Y-87550500D01*
X127112280Y-87550500D01*
X127112284Y-87550501D01*
X127119453Y-87551339D01*
X127119446Y-87551398D01*
X127126944Y-87552164D01*
X127126950Y-87552105D01*
X127134139Y-87552734D01*
X127134143Y-87552733D01*
X127134144Y-87552734D01*
X127162229Y-87551916D01*
X127210032Y-87550526D01*
X127211835Y-87550500D01*
X130036295Y-87550500D01*
X130054265Y-87551809D01*
X130078023Y-87555289D01*
X130130068Y-87550735D01*
X130135470Y-87550500D01*
X130143704Y-87550500D01*
X130143709Y-87550500D01*
X130175458Y-87546788D01*
X130177075Y-87546622D01*
X130252797Y-87539999D01*
X130252805Y-87539996D01*
X130259866Y-87538539D01*
X130259878Y-87538598D01*
X130267243Y-87536965D01*
X130267229Y-87536906D01*
X130274251Y-87535241D01*
X130274255Y-87535241D01*
X130345587Y-87509277D01*
X130347286Y-87508688D01*
X130419334Y-87484814D01*
X130419342Y-87484808D01*
X130425882Y-87481760D01*
X130425908Y-87481816D01*
X130432690Y-87478532D01*
X130432663Y-87478478D01*
X130439109Y-87475239D01*
X130439117Y-87475237D01*
X130502612Y-87433475D01*
X130503977Y-87432605D01*
X130568656Y-87392712D01*
X130568661Y-87392706D01*
X130574325Y-87388229D01*
X130574363Y-87388277D01*
X130580200Y-87383522D01*
X130580161Y-87383475D01*
X130585691Y-87378833D01*
X130585696Y-87378830D01*
X130637799Y-87323602D01*
X130638992Y-87322374D01*
X130930775Y-87030591D01*
X130992096Y-86997108D01*
X131006295Y-86994871D01*
X131096132Y-86986024D01*
X131284727Y-86928814D01*
X131458538Y-86835910D01*
X131610883Y-86710883D01*
X131735910Y-86558538D01*
X131782362Y-86471632D01*
X131828811Y-86384733D01*
X131828811Y-86384732D01*
X131828814Y-86384727D01*
X131886024Y-86196132D01*
X131905341Y-86000000D01*
X131886024Y-85803868D01*
X131828814Y-85615273D01*
X131828811Y-85615269D01*
X131828811Y-85615266D01*
X131735913Y-85441467D01*
X131735909Y-85441460D01*
X131678646Y-85371686D01*
X131651333Y-85307377D01*
X131650499Y-85293037D01*
X131650499Y-84346228D01*
X131670184Y-84279190D01*
X131686813Y-84258553D01*
X140609548Y-75335819D01*
X140670872Y-75302334D01*
X140697230Y-75299500D01*
X142708990Y-75299500D01*
X142776029Y-75319185D01*
X142821784Y-75371989D01*
X142827650Y-75387504D01*
X142885287Y-75577504D01*
X142885911Y-75647371D01*
X142848663Y-75706484D01*
X142785369Y-75736075D01*
X142766627Y-75737500D01*
X142475705Y-75737500D01*
X142457735Y-75736191D01*
X142433972Y-75732710D01*
X142388890Y-75736655D01*
X142381933Y-75737264D01*
X142376532Y-75737500D01*
X142368281Y-75737500D01*
X142336594Y-75741203D01*
X142334802Y-75741386D01*
X142259201Y-75748001D01*
X142252134Y-75749461D01*
X142252122Y-75749404D01*
X142244753Y-75751038D01*
X142244767Y-75751095D01*
X142237739Y-75752760D01*
X142166425Y-75778716D01*
X142164723Y-75779308D01*
X142092668Y-75803185D01*
X142086122Y-75806237D01*
X142086097Y-75806185D01*
X142079308Y-75809471D01*
X142079334Y-75809522D01*
X142072886Y-75812760D01*
X142009476Y-75854465D01*
X142007957Y-75855432D01*
X141943344Y-75895288D01*
X141937677Y-75899769D01*
X141937641Y-75899723D01*
X141931798Y-75904484D01*
X141931835Y-75904528D01*
X141926309Y-75909164D01*
X141874229Y-75964364D01*
X141872974Y-75965657D01*
X138569225Y-79269405D01*
X138507902Y-79302890D01*
X138493700Y-79305127D01*
X138403870Y-79313975D01*
X138215266Y-79371188D01*
X138041467Y-79464086D01*
X138041460Y-79464090D01*
X137889116Y-79589116D01*
X137764090Y-79741460D01*
X137764086Y-79741467D01*
X137671188Y-79915266D01*
X137613975Y-80103870D01*
X137605127Y-80193700D01*
X137578965Y-80258487D01*
X137569405Y-80269225D01*
X136039358Y-81799272D01*
X136025729Y-81811051D01*
X136006468Y-81825390D01*
X135972898Y-81865397D01*
X135969253Y-81869376D01*
X135963407Y-81875223D01*
X135943618Y-81900251D01*
X135942481Y-81901647D01*
X135893694Y-81959790D01*
X135889729Y-81965819D01*
X135889682Y-81965788D01*
X135885630Y-81972147D01*
X135885679Y-81972177D01*
X135881889Y-81978321D01*
X135849812Y-82047110D01*
X135849027Y-82048731D01*
X135814957Y-82116572D01*
X135812488Y-82123357D01*
X135812432Y-82123336D01*
X135809960Y-82130450D01*
X135810015Y-82130469D01*
X135807743Y-82137325D01*
X135792391Y-82211670D01*
X135792001Y-82213428D01*
X135774499Y-82287279D01*
X135773661Y-82294454D01*
X135773601Y-82294447D01*
X135772835Y-82301945D01*
X135772895Y-82301951D01*
X135772265Y-82309140D01*
X135774474Y-82385030D01*
X135774500Y-82386833D01*
X135774500Y-83584768D01*
X135754815Y-83651807D01*
X135738181Y-83672449D01*
X131814358Y-87596272D01*
X131800729Y-87608051D01*
X131781468Y-87622390D01*
X131747898Y-87662397D01*
X131744253Y-87666376D01*
X131738407Y-87672223D01*
X131718618Y-87697251D01*
X131717481Y-87698647D01*
X131668694Y-87756790D01*
X131664729Y-87762819D01*
X131664682Y-87762788D01*
X131660630Y-87769147D01*
X131660679Y-87769177D01*
X131656889Y-87775321D01*
X131624812Y-87844110D01*
X131624027Y-87845731D01*
X131589957Y-87913572D01*
X131587488Y-87920357D01*
X131587432Y-87920336D01*
X131584960Y-87927450D01*
X131585015Y-87927469D01*
X131582743Y-87934325D01*
X131567391Y-88008670D01*
X131567001Y-88010428D01*
X131549499Y-88084279D01*
X131548661Y-88091454D01*
X131548601Y-88091447D01*
X131547835Y-88098945D01*
X131547895Y-88098951D01*
X131547265Y-88106141D01*
X131549473Y-88182031D01*
X131549499Y-88183834D01*
X131549500Y-93037769D01*
X131529815Y-93104808D01*
X131513181Y-93125450D01*
X127869225Y-96769405D01*
X127807902Y-96802890D01*
X127793700Y-96805127D01*
X127703870Y-96813975D01*
X127515266Y-96871188D01*
X127341467Y-96964086D01*
X127341460Y-96964090D01*
X127189116Y-97089116D01*
X127064090Y-97241460D01*
X127064086Y-97241467D01*
X127003427Y-97354953D01*
X126954465Y-97404797D01*
X126894069Y-97420500D01*
X121012229Y-97420500D01*
X120945190Y-97400815D01*
X120924548Y-97384181D01*
X120547819Y-97007451D01*
X120514334Y-96946128D01*
X120511500Y-96919770D01*
X120511500Y-94469228D01*
X120531185Y-94402189D01*
X120547814Y-94381552D01*
X122786638Y-92142727D01*
X122800267Y-92130950D01*
X122819530Y-92116610D01*
X122819532Y-92116606D01*
X122819534Y-92116606D01*
X122837663Y-92094999D01*
X122853113Y-92076585D01*
X122856767Y-92072599D01*
X122862591Y-92066776D01*
X122882400Y-92041721D01*
X122883476Y-92040401D01*
X122932302Y-91982214D01*
X122932304Y-91982209D01*
X122936274Y-91976175D01*
X122936325Y-91976208D01*
X122940369Y-91969860D01*
X122940317Y-91969828D01*
X122944106Y-91963682D01*
X122944111Y-91963677D01*
X122976212Y-91894834D01*
X122976961Y-91893287D01*
X123011040Y-91825433D01*
X123011041Y-91825428D01*
X123013508Y-91818650D01*
X123013566Y-91818671D01*
X123016043Y-91811544D01*
X123015986Y-91811526D01*
X123018256Y-91804676D01*
X123033612Y-91730301D01*
X123033984Y-91728619D01*
X123051500Y-91654721D01*
X123051500Y-91654717D01*
X123051501Y-91654713D01*
X123052339Y-91647548D01*
X123052398Y-91647554D01*
X123053164Y-91640054D01*
X123053105Y-91640049D01*
X123053734Y-91632859D01*
X123051526Y-91556967D01*
X123051500Y-91555164D01*
X123051500Y-88328706D01*
X123052809Y-88310734D01*
X123056289Y-88286977D01*
X123056289Y-88286975D01*
X123051735Y-88234937D01*
X123051499Y-88229522D01*
X123051500Y-88221291D01*
X123047791Y-88189564D01*
X123047618Y-88187872D01*
X123040998Y-88112202D01*
X123040996Y-88112197D01*
X123039538Y-88105133D01*
X123039597Y-88105120D01*
X123037967Y-88097764D01*
X123037908Y-88097779D01*
X123036241Y-88090747D01*
X123036241Y-88090745D01*
X123010247Y-88019327D01*
X123009708Y-88017775D01*
X122985814Y-87945665D01*
X122985813Y-87945663D01*
X122982763Y-87939121D01*
X122982817Y-87939095D01*
X122979533Y-87932312D01*
X122979480Y-87932340D01*
X122976238Y-87925885D01*
X122972602Y-87920357D01*
X122934527Y-87862466D01*
X122933580Y-87860980D01*
X122893714Y-87796347D01*
X122889234Y-87790681D01*
X122889280Y-87790643D01*
X122884519Y-87784799D01*
X122884474Y-87784838D01*
X122879831Y-87779305D01*
X122824634Y-87727229D01*
X122823374Y-87726006D01*
X115186819Y-80089451D01*
X115153334Y-80028128D01*
X115150500Y-80001770D01*
X115150500Y-76206976D01*
X115170185Y-76139937D01*
X115178632Y-76128329D01*
X115235910Y-76058538D01*
X115320774Y-75899769D01*
X115328811Y-75884733D01*
X115328811Y-75884732D01*
X115328814Y-75884727D01*
X115386024Y-75696132D01*
X115405341Y-75500000D01*
X115386024Y-75303868D01*
X115328814Y-75115273D01*
X115328811Y-75115269D01*
X115328811Y-75115266D01*
X115235913Y-74941467D01*
X115235909Y-74941460D01*
X115110883Y-74789116D01*
X114958539Y-74664090D01*
X114958532Y-74664086D01*
X114784733Y-74571188D01*
X114784727Y-74571186D01*
X114658996Y-74533046D01*
X114596129Y-74513975D01*
X114400000Y-74494659D01*
X114203870Y-74513975D01*
X114015266Y-74571188D01*
X113841467Y-74664086D01*
X113841460Y-74664090D01*
X113689116Y-74789116D01*
X113564090Y-74941460D01*
X113564086Y-74941467D01*
X113471188Y-75115266D01*
X113413975Y-75303870D01*
X113394659Y-75500000D01*
X113413975Y-75696129D01*
X113413976Y-75696132D01*
X113462299Y-75855432D01*
X113471188Y-75884733D01*
X113564084Y-76058529D01*
X113564087Y-76058533D01*
X113564090Y-76058538D01*
X113621354Y-76128314D01*
X113648666Y-76192620D01*
X113649500Y-76206976D01*
X113649500Y-80300294D01*
X113648191Y-80318263D01*
X113644710Y-80342025D01*
X113649264Y-80394064D01*
X113649500Y-80399470D01*
X113649500Y-80407712D01*
X113653202Y-80439391D01*
X113653386Y-80441185D01*
X113660000Y-80516792D01*
X113661461Y-80523867D01*
X113661403Y-80523878D01*
X113663034Y-80531237D01*
X113663092Y-80531224D01*
X113664757Y-80538249D01*
X113690708Y-80609551D01*
X113691299Y-80611253D01*
X113715182Y-80683326D01*
X113718236Y-80689874D01*
X113718182Y-80689898D01*
X113721470Y-80696688D01*
X113721521Y-80696663D01*
X113724761Y-80703113D01*
X113724762Y-80703114D01*
X113724763Y-80703117D01*
X113766494Y-80766567D01*
X113767443Y-80768058D01*
X113807289Y-80832657D01*
X113811766Y-80838319D01*
X113811719Y-80838356D01*
X113816482Y-80844202D01*
X113816528Y-80844164D01*
X113821173Y-80849699D01*
X113876364Y-80901769D01*
X113877658Y-80903026D01*
X121514180Y-88539548D01*
X121547665Y-88600871D01*
X121550499Y-88627229D01*
X121550499Y-91204770D01*
X121530814Y-91271809D01*
X121514180Y-91292451D01*
X119555951Y-93250681D01*
X119494628Y-93284166D01*
X119468270Y-93287000D01*
X110506978Y-93287000D01*
X110439939Y-93267315D01*
X110428313Y-93258853D01*
X110358539Y-93201590D01*
X110358532Y-93201586D01*
X110184733Y-93108688D01*
X110184727Y-93108686D01*
X109996132Y-93051476D01*
X109996129Y-93051475D01*
X109800000Y-93032159D01*
X109603870Y-93051475D01*
X109415266Y-93108688D01*
X109241467Y-93201586D01*
X109241460Y-93201590D01*
X109089116Y-93326616D01*
X108964090Y-93478960D01*
X108964086Y-93478967D01*
X108871188Y-93652766D01*
X108813975Y-93841370D01*
X108794659Y-94037500D01*
X99559342Y-94037500D01*
X99705439Y-93947972D01*
X99888027Y-93792027D01*
X100043972Y-93609439D01*
X100169433Y-93404704D01*
X100261323Y-93182863D01*
X100317377Y-92949379D01*
X100336217Y-92710000D01*
X100317377Y-92470621D01*
X100261323Y-92237137D01*
X100193169Y-92072599D01*
X100169434Y-92015297D01*
X100053088Y-91825437D01*
X100043972Y-91810561D01*
X99888027Y-91627973D01*
X99705439Y-91472028D01*
X99705436Y-91472026D01*
X99500702Y-91346565D01*
X99307201Y-91266415D01*
X99278863Y-91254677D01*
X99278859Y-91254676D01*
X99278853Y-91254674D01*
X99045382Y-91198623D01*
X98806000Y-91179783D01*
X98566617Y-91198623D01*
X98333146Y-91254674D01*
X98333134Y-91254678D01*
X98111297Y-91346565D01*
X97906563Y-91472026D01*
X97723973Y-91627973D01*
X97568026Y-91810563D01*
X97442565Y-92015297D01*
X97350678Y-92237134D01*
X97350674Y-92237146D01*
X97294623Y-92470617D01*
X97275783Y-92710000D01*
X93980500Y-92710000D01*
X93980500Y-72847200D01*
X97453583Y-72847200D01*
X97472423Y-73086582D01*
X97528474Y-73320053D01*
X97528478Y-73320065D01*
X97620365Y-73541902D01*
X97701621Y-73674500D01*
X97745828Y-73746639D01*
X97901773Y-73929227D01*
X98084361Y-74085172D01*
X98084363Y-74085173D01*
X98289097Y-74210634D01*
X98385847Y-74250708D01*
X98510937Y-74302523D01*
X98744421Y-74358577D01*
X98983800Y-74377417D01*
X99223179Y-74358577D01*
X99456663Y-74302523D01*
X99678504Y-74210633D01*
X99883239Y-74085172D01*
X100065827Y-73929227D01*
X100221772Y-73746639D01*
X100347233Y-73541904D01*
X100439123Y-73320063D01*
X100495177Y-73086579D01*
X100514017Y-72847200D01*
X100495177Y-72607821D01*
X100439123Y-72374337D01*
X100387308Y-72249247D01*
X100347234Y-72152497D01*
X100221773Y-71947763D01*
X100221772Y-71947761D01*
X100065827Y-71765173D01*
X99883239Y-71609228D01*
X99800522Y-71558539D01*
X99678502Y-71483765D01*
X99456665Y-71391878D01*
X99456667Y-71391878D01*
X99456663Y-71391877D01*
X99456659Y-71391876D01*
X99456653Y-71391874D01*
X99223182Y-71335823D01*
X99043644Y-71321693D01*
X98983800Y-71316983D01*
X98983799Y-71316983D01*
X98744417Y-71335823D01*
X98510946Y-71391874D01*
X98510934Y-71391878D01*
X98289097Y-71483765D01*
X98084363Y-71609226D01*
X97901773Y-71765173D01*
X97745826Y-71947763D01*
X97620365Y-72152497D01*
X97528478Y-72374334D01*
X97528474Y-72374346D01*
X97472423Y-72607817D01*
X97453583Y-72847200D01*
X93980500Y-72847200D01*
X93980500Y-63501279D01*
X93980553Y-63498716D01*
X93989493Y-63282564D01*
X93998457Y-63077263D01*
X93998869Y-63072349D01*
X94026064Y-62854185D01*
X94053059Y-62649141D01*
X94053835Y-62644588D01*
X94098906Y-62429633D01*
X94143769Y-62227271D01*
X94144865Y-62223044D01*
X94207543Y-62012513D01*
X94269945Y-61814602D01*
X94271270Y-61810838D01*
X94350973Y-61606578D01*
X94351361Y-61605612D01*
X94430640Y-61414216D01*
X94432190Y-61410777D01*
X94528483Y-61213808D01*
X94529031Y-61212722D01*
X94624712Y-61028921D01*
X94626428Y-61025842D01*
X94738593Y-60837606D01*
X94739448Y-60836218D01*
X94850794Y-60661441D01*
X94852555Y-60658831D01*
X94979882Y-60480499D01*
X94981074Y-60478889D01*
X95107169Y-60314559D01*
X95108999Y-60312289D01*
X95250561Y-60145146D01*
X95252098Y-60143400D01*
X95392103Y-59990613D01*
X95393848Y-59988789D01*
X95548789Y-59833848D01*
X95550613Y-59832103D01*
X95703400Y-59692098D01*
X95705155Y-59690554D01*
X95872289Y-59548999D01*
X95874559Y-59547169D01*
X96038889Y-59421074D01*
X96040499Y-59419882D01*
X96218831Y-59292555D01*
X96221441Y-59290794D01*
X96396218Y-59179448D01*
X96397606Y-59178593D01*
X96585842Y-59066428D01*
X96588921Y-59064712D01*
X96772722Y-58969031D01*
X96773808Y-58968483D01*
X96970777Y-58872190D01*
X96974216Y-58870640D01*
X97165612Y-58791361D01*
X97166578Y-58790973D01*
X97370838Y-58711270D01*
X97374602Y-58709945D01*
X97572513Y-58647543D01*
X97783044Y-58584865D01*
X97787271Y-58583769D01*
X97989633Y-58538906D01*
X98204588Y-58493835D01*
X98209141Y-58493059D01*
X98414185Y-58466064D01*
X98632349Y-58438869D01*
X98637263Y-58438457D01*
X98842682Y-58429488D01*
X99058720Y-58420552D01*
X99061280Y-58420500D01*
X185418720Y-58420500D01*
X185421279Y-58420552D01*
G37*
%TD.AperFunction*%
%TD*%
M02*
