%TF.GenerationSoftware,KiCad,Pcbnew,7.0.5*%
%TF.CreationDate,2023-08-07T14:42:52-07:00*%
%TF.ProjectId,TransimpedianceAmplifierV2,5472616e-7369-46d7-9065-6469616e6365,rev?*%
%TF.SameCoordinates,Original*%
%TF.FileFunction,Legend,Bot*%
%TF.FilePolarity,Positive*%
%FSLAX46Y46*%
G04 Gerber Fmt 4.6, Leading zero omitted, Abs format (unit mm)*
G04 Created by KiCad (PCBNEW 7.0.5) date 2023-08-07 14:42:52*
%MOMM*%
%LPD*%
G01*
G04 APERTURE LIST*
%ADD10C,0.150000*%
G04 APERTURE END LIST*
D10*
X181822477Y-64519019D02*
X181251049Y-64519019D01*
X181536763Y-65519019D02*
X181536763Y-64519019D01*
X180917715Y-65519019D02*
X180917715Y-64852352D01*
X180917715Y-65042828D02*
X180870096Y-64947590D01*
X180870096Y-64947590D02*
X180822477Y-64899971D01*
X180822477Y-64899971D02*
X180727239Y-64852352D01*
X180727239Y-64852352D02*
X180632001Y-64852352D01*
X179870096Y-65519019D02*
X179870096Y-64995209D01*
X179870096Y-64995209D02*
X179917715Y-64899971D01*
X179917715Y-64899971D02*
X180012953Y-64852352D01*
X180012953Y-64852352D02*
X180203429Y-64852352D01*
X180203429Y-64852352D02*
X180298667Y-64899971D01*
X179870096Y-65471400D02*
X179965334Y-65519019D01*
X179965334Y-65519019D02*
X180203429Y-65519019D01*
X180203429Y-65519019D02*
X180298667Y-65471400D01*
X180298667Y-65471400D02*
X180346286Y-65376161D01*
X180346286Y-65376161D02*
X180346286Y-65280923D01*
X180346286Y-65280923D02*
X180298667Y-65185685D01*
X180298667Y-65185685D02*
X180203429Y-65138066D01*
X180203429Y-65138066D02*
X179965334Y-65138066D01*
X179965334Y-65138066D02*
X179870096Y-65090447D01*
X179393905Y-64852352D02*
X179393905Y-65519019D01*
X179393905Y-64947590D02*
X179346286Y-64899971D01*
X179346286Y-64899971D02*
X179251048Y-64852352D01*
X179251048Y-64852352D02*
X179108191Y-64852352D01*
X179108191Y-64852352D02*
X179012953Y-64899971D01*
X179012953Y-64899971D02*
X178965334Y-64995209D01*
X178965334Y-64995209D02*
X178965334Y-65519019D01*
X178536762Y-65471400D02*
X178441524Y-65519019D01*
X178441524Y-65519019D02*
X178251048Y-65519019D01*
X178251048Y-65519019D02*
X178155810Y-65471400D01*
X178155810Y-65471400D02*
X178108191Y-65376161D01*
X178108191Y-65376161D02*
X178108191Y-65328542D01*
X178108191Y-65328542D02*
X178155810Y-65233304D01*
X178155810Y-65233304D02*
X178251048Y-65185685D01*
X178251048Y-65185685D02*
X178393905Y-65185685D01*
X178393905Y-65185685D02*
X178489143Y-65138066D01*
X178489143Y-65138066D02*
X178536762Y-65042828D01*
X178536762Y-65042828D02*
X178536762Y-64995209D01*
X178536762Y-64995209D02*
X178489143Y-64899971D01*
X178489143Y-64899971D02*
X178393905Y-64852352D01*
X178393905Y-64852352D02*
X178251048Y-64852352D01*
X178251048Y-64852352D02*
X178155810Y-64899971D01*
X177679619Y-65519019D02*
X177679619Y-64852352D01*
X177679619Y-64519019D02*
X177727238Y-64566638D01*
X177727238Y-64566638D02*
X177679619Y-64614257D01*
X177679619Y-64614257D02*
X177632000Y-64566638D01*
X177632000Y-64566638D02*
X177679619Y-64519019D01*
X177679619Y-64519019D02*
X177679619Y-64614257D01*
X177203429Y-65519019D02*
X177203429Y-64852352D01*
X177203429Y-64947590D02*
X177155810Y-64899971D01*
X177155810Y-64899971D02*
X177060572Y-64852352D01*
X177060572Y-64852352D02*
X176917715Y-64852352D01*
X176917715Y-64852352D02*
X176822477Y-64899971D01*
X176822477Y-64899971D02*
X176774858Y-64995209D01*
X176774858Y-64995209D02*
X176774858Y-65519019D01*
X176774858Y-64995209D02*
X176727239Y-64899971D01*
X176727239Y-64899971D02*
X176632001Y-64852352D01*
X176632001Y-64852352D02*
X176489144Y-64852352D01*
X176489144Y-64852352D02*
X176393905Y-64899971D01*
X176393905Y-64899971D02*
X176346286Y-64995209D01*
X176346286Y-64995209D02*
X176346286Y-65519019D01*
X175870096Y-64852352D02*
X175870096Y-65852352D01*
X175870096Y-64899971D02*
X175774858Y-64852352D01*
X175774858Y-64852352D02*
X175584382Y-64852352D01*
X175584382Y-64852352D02*
X175489144Y-64899971D01*
X175489144Y-64899971D02*
X175441525Y-64947590D01*
X175441525Y-64947590D02*
X175393906Y-65042828D01*
X175393906Y-65042828D02*
X175393906Y-65328542D01*
X175393906Y-65328542D02*
X175441525Y-65423780D01*
X175441525Y-65423780D02*
X175489144Y-65471400D01*
X175489144Y-65471400D02*
X175584382Y-65519019D01*
X175584382Y-65519019D02*
X175774858Y-65519019D01*
X175774858Y-65519019D02*
X175870096Y-65471400D01*
X174584382Y-65471400D02*
X174679620Y-65519019D01*
X174679620Y-65519019D02*
X174870096Y-65519019D01*
X174870096Y-65519019D02*
X174965334Y-65471400D01*
X174965334Y-65471400D02*
X175012953Y-65376161D01*
X175012953Y-65376161D02*
X175012953Y-64995209D01*
X175012953Y-64995209D02*
X174965334Y-64899971D01*
X174965334Y-64899971D02*
X174870096Y-64852352D01*
X174870096Y-64852352D02*
X174679620Y-64852352D01*
X174679620Y-64852352D02*
X174584382Y-64899971D01*
X174584382Y-64899971D02*
X174536763Y-64995209D01*
X174536763Y-64995209D02*
X174536763Y-65090447D01*
X174536763Y-65090447D02*
X175012953Y-65185685D01*
X173679620Y-65519019D02*
X173679620Y-64519019D01*
X173679620Y-65471400D02*
X173774858Y-65519019D01*
X173774858Y-65519019D02*
X173965334Y-65519019D01*
X173965334Y-65519019D02*
X174060572Y-65471400D01*
X174060572Y-65471400D02*
X174108191Y-65423780D01*
X174108191Y-65423780D02*
X174155810Y-65328542D01*
X174155810Y-65328542D02*
X174155810Y-65042828D01*
X174155810Y-65042828D02*
X174108191Y-64947590D01*
X174108191Y-64947590D02*
X174060572Y-64899971D01*
X174060572Y-64899971D02*
X173965334Y-64852352D01*
X173965334Y-64852352D02*
X173774858Y-64852352D01*
X173774858Y-64852352D02*
X173679620Y-64899971D01*
X173203429Y-65519019D02*
X173203429Y-64852352D01*
X173203429Y-64519019D02*
X173251048Y-64566638D01*
X173251048Y-64566638D02*
X173203429Y-64614257D01*
X173203429Y-64614257D02*
X173155810Y-64566638D01*
X173155810Y-64566638D02*
X173203429Y-64519019D01*
X173203429Y-64519019D02*
X173203429Y-64614257D01*
X172298668Y-65519019D02*
X172298668Y-64995209D01*
X172298668Y-64995209D02*
X172346287Y-64899971D01*
X172346287Y-64899971D02*
X172441525Y-64852352D01*
X172441525Y-64852352D02*
X172632001Y-64852352D01*
X172632001Y-64852352D02*
X172727239Y-64899971D01*
X172298668Y-65471400D02*
X172393906Y-65519019D01*
X172393906Y-65519019D02*
X172632001Y-65519019D01*
X172632001Y-65519019D02*
X172727239Y-65471400D01*
X172727239Y-65471400D02*
X172774858Y-65376161D01*
X172774858Y-65376161D02*
X172774858Y-65280923D01*
X172774858Y-65280923D02*
X172727239Y-65185685D01*
X172727239Y-65185685D02*
X172632001Y-65138066D01*
X172632001Y-65138066D02*
X172393906Y-65138066D01*
X172393906Y-65138066D02*
X172298668Y-65090447D01*
X171822477Y-64852352D02*
X171822477Y-65519019D01*
X171822477Y-64947590D02*
X171774858Y-64899971D01*
X171774858Y-64899971D02*
X171679620Y-64852352D01*
X171679620Y-64852352D02*
X171536763Y-64852352D01*
X171536763Y-64852352D02*
X171441525Y-64899971D01*
X171441525Y-64899971D02*
X171393906Y-64995209D01*
X171393906Y-64995209D02*
X171393906Y-65519019D01*
X170489144Y-65471400D02*
X170584382Y-65519019D01*
X170584382Y-65519019D02*
X170774858Y-65519019D01*
X170774858Y-65519019D02*
X170870096Y-65471400D01*
X170870096Y-65471400D02*
X170917715Y-65423780D01*
X170917715Y-65423780D02*
X170965334Y-65328542D01*
X170965334Y-65328542D02*
X170965334Y-65042828D01*
X170965334Y-65042828D02*
X170917715Y-64947590D01*
X170917715Y-64947590D02*
X170870096Y-64899971D01*
X170870096Y-64899971D02*
X170774858Y-64852352D01*
X170774858Y-64852352D02*
X170584382Y-64852352D01*
X170584382Y-64852352D02*
X170489144Y-64899971D01*
X169679620Y-65471400D02*
X169774858Y-65519019D01*
X169774858Y-65519019D02*
X169965334Y-65519019D01*
X169965334Y-65519019D02*
X170060572Y-65471400D01*
X170060572Y-65471400D02*
X170108191Y-65376161D01*
X170108191Y-65376161D02*
X170108191Y-64995209D01*
X170108191Y-64995209D02*
X170060572Y-64899971D01*
X170060572Y-64899971D02*
X169965334Y-64852352D01*
X169965334Y-64852352D02*
X169774858Y-64852352D01*
X169774858Y-64852352D02*
X169679620Y-64899971D01*
X169679620Y-64899971D02*
X169632001Y-64995209D01*
X169632001Y-64995209D02*
X169632001Y-65090447D01*
X169632001Y-65090447D02*
X170108191Y-65185685D01*
X168489143Y-65233304D02*
X168012953Y-65233304D01*
X168584381Y-65519019D02*
X168251048Y-64519019D01*
X168251048Y-64519019D02*
X167917715Y-65519019D01*
X167584381Y-65519019D02*
X167584381Y-64852352D01*
X167584381Y-64947590D02*
X167536762Y-64899971D01*
X167536762Y-64899971D02*
X167441524Y-64852352D01*
X167441524Y-64852352D02*
X167298667Y-64852352D01*
X167298667Y-64852352D02*
X167203429Y-64899971D01*
X167203429Y-64899971D02*
X167155810Y-64995209D01*
X167155810Y-64995209D02*
X167155810Y-65519019D01*
X167155810Y-64995209D02*
X167108191Y-64899971D01*
X167108191Y-64899971D02*
X167012953Y-64852352D01*
X167012953Y-64852352D02*
X166870096Y-64852352D01*
X166870096Y-64852352D02*
X166774857Y-64899971D01*
X166774857Y-64899971D02*
X166727238Y-64995209D01*
X166727238Y-64995209D02*
X166727238Y-65519019D01*
X166251048Y-64852352D02*
X166251048Y-65852352D01*
X166251048Y-64899971D02*
X166155810Y-64852352D01*
X166155810Y-64852352D02*
X165965334Y-64852352D01*
X165965334Y-64852352D02*
X165870096Y-64899971D01*
X165870096Y-64899971D02*
X165822477Y-64947590D01*
X165822477Y-64947590D02*
X165774858Y-65042828D01*
X165774858Y-65042828D02*
X165774858Y-65328542D01*
X165774858Y-65328542D02*
X165822477Y-65423780D01*
X165822477Y-65423780D02*
X165870096Y-65471400D01*
X165870096Y-65471400D02*
X165965334Y-65519019D01*
X165965334Y-65519019D02*
X166155810Y-65519019D01*
X166155810Y-65519019D02*
X166251048Y-65471400D01*
X165203429Y-65519019D02*
X165298667Y-65471400D01*
X165298667Y-65471400D02*
X165346286Y-65376161D01*
X165346286Y-65376161D02*
X165346286Y-64519019D01*
X164822476Y-65519019D02*
X164822476Y-64852352D01*
X164822476Y-64519019D02*
X164870095Y-64566638D01*
X164870095Y-64566638D02*
X164822476Y-64614257D01*
X164822476Y-64614257D02*
X164774857Y-64566638D01*
X164774857Y-64566638D02*
X164822476Y-64519019D01*
X164822476Y-64519019D02*
X164822476Y-64614257D01*
X164489143Y-64852352D02*
X164108191Y-64852352D01*
X164346286Y-65519019D02*
X164346286Y-64661876D01*
X164346286Y-64661876D02*
X164298667Y-64566638D01*
X164298667Y-64566638D02*
X164203429Y-64519019D01*
X164203429Y-64519019D02*
X164108191Y-64519019D01*
X163774857Y-65519019D02*
X163774857Y-64852352D01*
X163774857Y-64519019D02*
X163822476Y-64566638D01*
X163822476Y-64566638D02*
X163774857Y-64614257D01*
X163774857Y-64614257D02*
X163727238Y-64566638D01*
X163727238Y-64566638D02*
X163774857Y-64519019D01*
X163774857Y-64519019D02*
X163774857Y-64614257D01*
X162917715Y-65471400D02*
X163012953Y-65519019D01*
X163012953Y-65519019D02*
X163203429Y-65519019D01*
X163203429Y-65519019D02*
X163298667Y-65471400D01*
X163298667Y-65471400D02*
X163346286Y-65376161D01*
X163346286Y-65376161D02*
X163346286Y-64995209D01*
X163346286Y-64995209D02*
X163298667Y-64899971D01*
X163298667Y-64899971D02*
X163203429Y-64852352D01*
X163203429Y-64852352D02*
X163012953Y-64852352D01*
X163012953Y-64852352D02*
X162917715Y-64899971D01*
X162917715Y-64899971D02*
X162870096Y-64995209D01*
X162870096Y-64995209D02*
X162870096Y-65090447D01*
X162870096Y-65090447D02*
X163346286Y-65185685D01*
X162441524Y-65519019D02*
X162441524Y-64852352D01*
X162441524Y-65042828D02*
X162393905Y-64947590D01*
X162393905Y-64947590D02*
X162346286Y-64899971D01*
X162346286Y-64899971D02*
X162251048Y-64852352D01*
X162251048Y-64852352D02*
X162155810Y-64852352D01*
X181822477Y-66129019D02*
X181489144Y-67129019D01*
X181489144Y-67129019D02*
X181155811Y-66129019D01*
X180060572Y-67129019D02*
X180060572Y-66462352D01*
X180060572Y-66129019D02*
X180108191Y-66176638D01*
X180108191Y-66176638D02*
X180060572Y-66224257D01*
X180060572Y-66224257D02*
X180012953Y-66176638D01*
X180012953Y-66176638D02*
X180060572Y-66129019D01*
X180060572Y-66129019D02*
X180060572Y-66224257D01*
X179584382Y-66462352D02*
X179584382Y-67129019D01*
X179584382Y-66557590D02*
X179536763Y-66509971D01*
X179536763Y-66509971D02*
X179441525Y-66462352D01*
X179441525Y-66462352D02*
X179298668Y-66462352D01*
X179298668Y-66462352D02*
X179203430Y-66509971D01*
X179203430Y-66509971D02*
X179155811Y-66605209D01*
X179155811Y-66605209D02*
X179155811Y-67129019D01*
X178679620Y-66462352D02*
X178679620Y-67462352D01*
X178679620Y-66509971D02*
X178584382Y-66462352D01*
X178584382Y-66462352D02*
X178393906Y-66462352D01*
X178393906Y-66462352D02*
X178298668Y-66509971D01*
X178298668Y-66509971D02*
X178251049Y-66557590D01*
X178251049Y-66557590D02*
X178203430Y-66652828D01*
X178203430Y-66652828D02*
X178203430Y-66938542D01*
X178203430Y-66938542D02*
X178251049Y-67033780D01*
X178251049Y-67033780D02*
X178298668Y-67081400D01*
X178298668Y-67081400D02*
X178393906Y-67129019D01*
X178393906Y-67129019D02*
X178584382Y-67129019D01*
X178584382Y-67129019D02*
X178679620Y-67081400D01*
X177346287Y-66462352D02*
X177346287Y-67129019D01*
X177774858Y-66462352D02*
X177774858Y-66986161D01*
X177774858Y-66986161D02*
X177727239Y-67081400D01*
X177727239Y-67081400D02*
X177632001Y-67129019D01*
X177632001Y-67129019D02*
X177489144Y-67129019D01*
X177489144Y-67129019D02*
X177393906Y-67081400D01*
X177393906Y-67081400D02*
X177346287Y-67033780D01*
X177012953Y-66462352D02*
X176632001Y-66462352D01*
X176870096Y-66129019D02*
X176870096Y-66986161D01*
X176870096Y-66986161D02*
X176822477Y-67081400D01*
X176822477Y-67081400D02*
X176727239Y-67129019D01*
X176727239Y-67129019D02*
X176632001Y-67129019D01*
X175536762Y-66748066D02*
X174774858Y-66748066D01*
X175155810Y-67129019D02*
X175155810Y-66367114D01*
X173584382Y-66081400D02*
X174441524Y-67367114D01*
X173251048Y-66748066D02*
X172489144Y-66748066D01*
X172060572Y-66224257D02*
X172012953Y-66176638D01*
X172012953Y-66176638D02*
X171917715Y-66129019D01*
X171917715Y-66129019D02*
X171679620Y-66129019D01*
X171679620Y-66129019D02*
X171584382Y-66176638D01*
X171584382Y-66176638D02*
X171536763Y-66224257D01*
X171536763Y-66224257D02*
X171489144Y-66319495D01*
X171489144Y-66319495D02*
X171489144Y-66414733D01*
X171489144Y-66414733D02*
X171536763Y-66557590D01*
X171536763Y-66557590D02*
X172108191Y-67129019D01*
X172108191Y-67129019D02*
X171489144Y-67129019D01*
X171060572Y-67033780D02*
X171012953Y-67081400D01*
X171012953Y-67081400D02*
X171060572Y-67129019D01*
X171060572Y-67129019D02*
X171108191Y-67081400D01*
X171108191Y-67081400D02*
X171060572Y-67033780D01*
X171060572Y-67033780D02*
X171060572Y-67129019D01*
X170108192Y-66129019D02*
X170584382Y-66129019D01*
X170584382Y-66129019D02*
X170632001Y-66605209D01*
X170632001Y-66605209D02*
X170584382Y-66557590D01*
X170584382Y-66557590D02*
X170489144Y-66509971D01*
X170489144Y-66509971D02*
X170251049Y-66509971D01*
X170251049Y-66509971D02*
X170155811Y-66557590D01*
X170155811Y-66557590D02*
X170108192Y-66605209D01*
X170108192Y-66605209D02*
X170060573Y-66700447D01*
X170060573Y-66700447D02*
X170060573Y-66938542D01*
X170060573Y-66938542D02*
X170108192Y-67033780D01*
X170108192Y-67033780D02*
X170155811Y-67081400D01*
X170155811Y-67081400D02*
X170251049Y-67129019D01*
X170251049Y-67129019D02*
X170489144Y-67129019D01*
X170489144Y-67129019D02*
X170584382Y-67081400D01*
X170584382Y-67081400D02*
X170632001Y-67033780D01*
M02*
